<svg xmlns="http://www.w3.org/2000/svg" viewBox="0 0 356.7799987792969 234"><title>Depositphotos_69197119_2</title><g data-name="Layer 2"><path d="M170.26 148.49L67.53 231.62 0 86.42l61.46 22.41L80 115.58h.06zM77.38 234h96.93l.07-32.84-.1-45.58zm59.89-106.42l32.38-125.5-67.39 88.82-14.41 19zM178.45 0l-33.63 130.32 33.49 12.57 33.78-12.55zM80 107.06l11.5-15.21L0 77.91l46.44 16.92zm189 2.84L187.4 2.28l32.32 125.24zm-86.66 91.24l.07 32.84h97l-96.94-78.45zm94.51-85.55l-5.13 1.83-85.21 31.08 34 27.55 68.71 55.6 67.56-145.18-79.88 29.12zm79.89-37.67L265.4 91.85 276.92 107z" fill="#fff" data-name="Layer 1"/></g></svg>