<svg xmlns="http://www.w3.org/2000/svg" viewBox="-1.430039882659912 -2.4599990844726562 282.4300537109375 308.41998291015625"><title>Depositphotos_3439909</title><g data-name="Layer 2"><path d="M269.69 159.25c-7.47 0-6.43-6.57-14.52-2.86-4.35 2-2.32 5.76-8 5.64-3-.06-4.64-4.09-7.49-4.5-7.4-1.06-7.86 7.26-14.78 7-5.35-.24-8.23-9.39-14.12-3.34-3.87 4 1.48 15.73 1.55 21.6.2 18.17-12.32 31.43-14.93 48.77-1.46 9.67.5 18.33 7.64 25.16 2.63 2.52 7.45 3.8 8.33 7.76 1.61 7.28-5.81 8.35-10.94 6.9-24.37-6.9-30.16-41.78-24.54-61.95-3 3.74-7.73 6.26-10.57 9.87a43.39 43.39 0 0 1-5.74 3.65 96.1 96.1 0 0 1 5.25 9.84c3.71 8.19 6.27 17.07 6.36 26.11.13 12.89-4.91 25.9-14.91 34.3-5.35 4.5-27.91 12.76-22.26-2 2-5.25 10.27-7.74 13-13.76 2.95-6.63 2.75-14.22 1.12-21.15a47.65 47.65 0 0 0-6-14.21c-3.75-6-3.74-8-10.43-5.16-5.92 2.54-11.26 11-12.67 17.13-1.49 6.44 6.64 26.41-6.67 23.2-12.77-3.08-10.08-29.78-7.57-38.08 2.22-7.36 12.76-18.68 12.45-23.77-.19-3.07-5.9-9.4-7.13-12.81a55 55 0 0 1-2.79-12.9c-8.69 22.94 2.89 48.89-15.1 69.12-7.42 8.35-27.06 19.12-38 10.42-10.48-8.31 2.86-9.62 8.54-11.31 9-2.68 14.65-10 17.31-18.94 4.18-14-1.35-26.07-5.09-39.34-3.88-13.76-1.54-26.26 5.35-38.69-7.51-1.52-7.78 7-16.27 3.58-3.56-1.42-3.09-5.25-8.15-5.29-3 0-3.64 3.57-6 4.06-9.11 1.91-6.79-5.28-14.7-6.14s-7.15 6.62-15.64 2.74c-3.49-1.59-2.85-5.4-7.91-5.69-2.95-.17-3.81 3.34-6.19 3.76-8.83 1.57-8.91-.82-4.65-8.11 4.82-8.25 7.5-12.29 7.1-22.18C9.21 110 1.49 93.19 3.61 75.36a68.61 68.61 0 0 1 17.1-37.29c33-37.16 93.63-40.53 139.46-37 38.71 3 85.76 15.23 104.21 53.41A65 65 0 0 1 270.25 92c-2.21 15.65-11.61 36.81-3.08 52.11 1.83 3.38 13.83 15.21 2.52 15.14z" fill="#fff" data-name="Layer 1"/></g></svg>