<?xml version="1.0" encoding="UTF-8"?><svg xmlns="http://www.w3.org/2000/svg" width="790.51" height="1080" viewBox="0 0 790.51 1080"><g id="a"/><g id="b"><g id="c"><g id="d"><g><path d="M744.86,350.74c.59,1.24,.95,2.66,1.81,3.69,7.52,8.95,8.03,9.04,21.04,4.77,1.98,6.46,4.05,12.93,5.88,19.47,.51,1.81-.19,3.95-1.89,5.17-2.01,1.43-3.75,.15-5.18-1.02-2.6-2.11-4.43-4.7-4.07-8.34,.46-4.66-2.56-6.63-6.37-7.89-8.81-2.91-11.63-1.13-16.28,10.61,4.15,.89,8.27,1.76,12.48,2.66-.27,4.66-7.29,3.98-6.86,8.78,.41,4.61,4.17,5.47,7.51,7.16,2.46,1.24,4.44,3.25,6.61,4.95,6.81,5.33,8.76,4.68,11.63-4.01,.42-1.28,.42-2.66,.69-4.54,3.14,2.87,5.7,5.31,6.89,8.92,2.84,8.67,1.09,11.62-8.32,10.93-6.46-.47-9.49,.68-9.53,7.22-.02,2.95-1.91,4.16-4.79,4.46-8.35,.86-6.64,4.57-4.37,9.62,3.17,7.07,4.12,15.2,15.33,15.13,6.62-.04,2.87,6.61,4.07,10.08,1.26,3.68-.33,6.67-4.92,7.1-4.67,.44-7.84,2.53-7.9,7.1-.06,4.55,5.51,2.58,7.66,4.97,.96,3.63-2.75,4.65-4.64,6.61-4.82,4.97-3.52,9.08,1.4,11.54,5.66,2.84,10.16,6.09,11.7,12.53,.85,3.54,4.47,3.97,7.84,4.79,4.28,1.05,7.02,4.29,8.2,8.41,.27,.95-.91,2.61-1.81,3.65-.41,.48-2.28,.65-2.57,.28-3.32-4.4-8.92-3.99-13.58-5.65-3.68-1.31-3.42-5.99-4.18-9.65-.59-2.83-3.47-4.37-6.83-3.31-3.63,1.14-3.73,3.29-2.94,6.65,2.08,8.79-1.09,17.83-3.47,26.44-2.21,8.01,2.93,13.15,3.96,19.78,.17,1.11,2.98,1.91,4.75,2.28,1.3,.27,3.35-1.08,4.26-.54,4.81,2.88,14.49,.02,15.07,5.86,.76,7.68-9.36,6.62-13.72,7.79-8.66,2.33-12.4,7.43-11.99,13.97,.32,5.19-9.32,13.39,2.62,16.11,1.36,.31-.69,2.45-1.94,2.68-6.06,1.12-5.41,5.31-6.47,9.65-1.79,7.33,2.49,13.66,.51,20.91-.93,3.4,1.81,4.81,5.28,4.57,2.6-.18,5.14,.11,4.22,3.51-.59,2.16-2.67,2.86-4.73,2.27-7.14-2.07-8.88,2.75-9.17,7.75-.29,5.02-2.92,12.48,6.91,11.26,3.81-.47,4.51,1.87,3.45,4.03-4.68,9.53-3.16,19.89-8.78,29.89-4.52,8.05-5.49,18.84-7.69,28.46-2.44,10.68-5.25,21.3-7.86,31.96-1.17,4.78-.79,9.4,.87,13.8,.85,2.25,1.08,3.86-1.02,6.25-7.59,8.62-11.19,18.56-11.55,29.64-.15,4.58-3.13,8.91-4.84,13.24-7.8,19.84-16.55,39.36-24.92,58.97l.23-.25c-9.53,14.46-19.56,28.72-28.46,43.35-9.64,15.85-21.64,30.54-28.58,47.78-1.15,2.86-3.15,4.47-5.29,6.46-4.49,4.19-9.52,8.4-11.35,14.38-1.79,5.88-5.42,7.01-10.77,6.95-3.3-.04-9.91-1.2-4.31,5.86,.83,1.05-2.2,2.65-3.67,3.82-3.38,2.68-6.7,5.44-10.03,8.15,1.36-2.55,2.81-5.44-.07-7.3-2.1-1.35-4.74-.03-5.97,2.14-3.08,5.4-10.58,6.65-12.46,13.06-14.52,1.56-23.74,13.81-36.62,18.89-8.66,3.41-16.26,9.51-25.8,11.05-2.16,.35-4.58,1.85-6.12,3.5-8.19,8.75-19.93,8.25-29.84,12.45-1.55,.66-4.57,.77-5.31-.14-5.39-6.62-12.98-2.82-19.39-3.03-6.86-.22-11.97-6.12-19.34-3.91-2.64,.79-5.72-.06-8.38,.69-6.93,1.94-12.07,.77-15-6.01-.69-1.61-1.84-3.3-3.29-4.24-3.83-2.48-7.37-2.3-7.73,3.23-.19,2.99,.18,5.67-3.69,6.24-3.51,.52-3.33-1.93-3.43-4.34-.1-2.52-2.32-3.09-3.84-1.69-7.81,7.19-17.69,5.88-25.6,4.12-9.99-2.23-20.49-3.45-30-7.5-2.85-1.21-6.36-1.38-7.81-5.05-1.84-4.65-5.94-5.32-10.55-3.93-5.68,1.71-8.87-.74-7.87-5.87,1.46-7.57-1.91-9.85-8.45-9.11-2.2-6.12,6.66-3.75,5.45-9.38-8.42,.12-18.69,4.63-23.53-6.18-5.91,3.03-2.43,8.18-5.16,11.54-1.83,2.25-2.66,5.12-6.26,4.09-2.51-.72-3.75-2.69-3.15-5.3,.74-3.22,1.96-7.13-1.27-8.85-4.84-2.57-10.3-4.29-15.7-5.68-2.81-.72-4.06,1.75-3.98,4.36,.07,2.21,1.5,4.37-.07,6.61-9.42-2.36-9.62-2.45-5.75-10.26,1.53-3.09,1.31-5.6-1.22-7.21-8.11-5.16-17.92-7.34-25.13-14.49-3.73-3.7-7.34-.34-10.89,10.1l.21-.27c-2.97-4.72-.28-13.46-10.12-13.34-1.38,.02-3.01-1-4.07-.54-2.79,1.22-5.05,5.57-8.5,2.12-3.14-3.13-7.95-4.71-9.12-9.85-.73-3.21,1.79-12.31-7.49-5.32-1.43-2.22-3.17-4.32-4.22-6.7-1.71-3.89,2.81-2.46,3.87-3.82,2.52-3.24,4.44-6.9,6.7-10.33,1.54-2.33,4.13-4.93,1.52-7.27-2.82-2.53-8.07-3.97-10.17-.5-5.92,9.79-7.53,2.04-10.03-1.49-.98-1.38-1-3.41-1.41-4.96,.88-.84,1.59-1.96,2.04-1.88,3.68,.63,8.23,2.53,9.76-2.37,1.28-4.09-1.4-8.01-4.82-10.5-3.39-2.45-7.62-2.09-10.28,1.27-2.95,3.73-4.87,8.25-11.05,5.39,.23-3.76,5-2.43,5.99-5.14,1.47-4.04,10.17-6.01,3.88-12.31-5.89-5.9-7.74-6.3-15.59-1.45-1.59,.98-2.86,2.55-6.36,2.22-1.77-8.96-5.83-17.54-12.91-24.58-1.05-1.05-1.37-3.66-.78-5.13,1.77-4.46,5.41-7.45-4.41-6.84-5.38,.33,2.22-4.86,2.32-8.83-4.45-2.15-9.31-4.54-14.23-6.85-16.5-7.71-20.27-13.41-11.54-33.78,1.83-4.27,4.1-9.76,.53-10.66-9.02-2.27-5.48-8.51-6.81-13.5-2.36-8.84-2.7-19.08-13.94-23.06l.3,.23c.41-12.55-3.69-23.91-9.61-34.64-1.81-3.28-5.35-3.61-8.58-.81-3.26,2.82-6.25,3.23-7.9-.88-1.15-2.86-2.12-6.93,3.15-7.34,6.76-.53,5.97-3.93,3.71-7.28-3.19-4.73-.97-11.97-6.82-15.09-5.95,1.27-1.29,7.31-6.58,8.92-6.85-8.96-5.77-20.34-8.74-30.42-1.11-3.78-1.15-7.75-3.45-11.37-4.47-7.04-4.43-14.34,1.6-21.21,3.01-3.43,2.08-5.21-1.61-7.43-4.34-2.6-4.43-5.81-.21-9.98,7.53-7.43,6.91-8.46-3.84-10.08-4.41-.66-6.16-5.49-2.19-7.42,6.88-3.34,10.77-6.59,6.3-13.4-2.7-4.11-1.86-11.49-11.36-8.08,1.82-5.43,5.44-5.4,7.62-7.14,2.33-1.87,4.61-3.37,2.84-6.76-2.88-5.52-2.49-11.3,.03-17.19,.7-1.63,1.31-3.87,.67-5.28-8.14-17.92-4.42-36.95-3.51-55.73,.26-5.33,.34-10.22-2.12-15.64-4.48-9.86-6.83-20.91,5.15-29.83,2.53-1.89,3.76-4.37,3.81-7.27,.03-2.17,1.17-5.04-1.55-6.01-4.11-1.46-3.3,4.14-8.19,4.86,6.57-17.77,5.23-36.14,14.2-53.03,1.08-2.03,2.75-5.54,1.87-6.4-8.58-8.38-1.1-17.38,.74-25.67,7.6-34.2,19.12-67.67,33.07-100.64,4.01-9.46,4.3-20,11.79-28.51,3.08,.15,6.25,2.91,9.09-.87,.47-.63,.66-2.17,.25-2.46-4.03-2.84-5.32,2.4-8.27,2.95-.46,.08-.87,.41-1.31,.63,4.31-20.8,15.76-39.26,26.9-57.89,1.65-2.76,3.06-3.31,5.85-2.34,4.2,1.47,6.91-.7,8.27-4.12,1.11-2.8,.66-5.93-2.97-6.48-4.84-.74-3.94-3.68-2.42-6.01,8.41-12.95,12.7-27.79,24.15-39.37l-.27-.18c7.27,1.86,10.57-3.62,13.06-7.78,8.51-14.21,20.7-25.15,34.65-34.94,6.68-4.69,12.11-10.99,17.17-16.84,14.06-16.25,31-26.27,52.34-32.53,13.3-3.9,26.7-7.69,40.03-11.64,5-1.48,10.02-2.46,15.15-2.18,8.33,.46,14.76-2.25,21.94-7.77,9.74-7.5,22.68-10.14,34.71-12.13,8.92-1.48,18.09-2.9,27.3-1.88,6.79,.75,14.19-.94,21.32-1.72,8.19-.9,16.28-1.56,24.02,.74,2.27,.67,5.14,1.28,7.37,.58,12.66-3.97,22.97,1.23,33.27,4.61,15.16,4.99,29.86,11.14,43.94,18.04,8.19,4.02,18.01,4.07,25.64,9.41,26.29,18.46,53.74,35.47,77.83,56.45,27.92,24.46,53.06,51.14,75.18,80.4,2.42,3.21,4.26,6.82,6.14,9.87-3.36,5.38-8.13,1.37-12.07,4.4-.29,8.65-.42,17.31,11.57,19.22,3.75-3.18,1.41-6.07,.44-8.92-.88-2.56-.03-4.85,2.22-6.33,3.08-2.03,4.56,.56,5.75,2.28,2.07,2.99,3.79,6.24,5.48,9.48,9.56,18.44,19.08,36.91,28.49,55.45,1.01,2,1.72,4.3-.1,6.9-4.99,1.05-6.97-4.09-11.36-4.31,1.09-3.17,2.65-6.79-2.76-6.73-2.63,.03-4.68,1.96-4.06,4.72,.91,4.06,3.32,4.95,7.07,1.7,.72,4.47,1.6,8.91,2.1,13.43,.41,3.73,.63,7.71,5.32,8.28,4.57,.56,2.76-6.15,7.56-6.51,4.35,3.8,6.5,9.2,8.2,14.83,.4,1.32,.2,2.86-1.24,3.87-2.1,1.47-3.72,.72-4.78-.96-.95-1.52-1.3-3.5-2.5-4.75-1.26-1.31-3.41-1.58-5.44-.88-2.65,.91-4.35,2.92-4.38,5.42-.03,2.26,.61,4.51,1.26,6.65,4.25,14.03,8.67,28,12.81,42.08,1.03,3.52,1.34,7.31-1.68,10.76,.39-4.18,1.52-8.77-4.73-9.33-.56-.05-1.89,1.05-1.93,1.6-.31,4,3.42,4.78,5.87,6.59,.36,.27,.7,.57,1.04,.86Zm-400.73,698.57c.2,.86,.17,1.87,.64,2.54,1.11,1.58,2.74,2.48,4.75,1.51,.64-.31,1.35-1.43,1.27-2.06-.29-2.34-2.33-2.42-4.2-2.39-.89,.01-1.8,.45-2.7,.7-2.54-1.94-5.03-4.17-8.66-.24,2.96-.02,5.92-.04,8.89-.06ZM719.46,239.15c-.71-6.53-4.17-14.23-9.91-20.79-.67-.77-2.66-.92-3.94-.64-1.52,.34-2.52,1.87-2.06,3.3,2.62,8.14,4,16.86,9.47,23.72,1.08,1.36,2.79,2.71,5.01,1.57,2.11-1.09,2.18-3.03,1.43-7.17ZM246.87,751.37c7.72-1.26,13.39,4.34,17.14-1.86,1.76-2.9-2.61-7.47-5.07-8.33-6.75-2.35-6.3,5.19-12.07,10.19Zm-23.87-29.82c6.31,7.22,9.55,13.53,19.14,16.25-2.66-9.33-6.31-15.13-19.14-16.25ZM736.97,388.22c-.14-2.73-2.14-4.78-5.16-4.79-3.71,0-2.99,3.2-2.92,5.24,.09,2.99,1.39,5.37,5.21,4.43,2.17-.54,2.86-2.44,2.88-4.89Zm-480.07,371.22c.08,2.82,2.18,3.43,4.57,3.65,1.98,.18,4.05-.4,4.35-2.35,.52-3.41-2-4.55-5.1-4.43-1.9,.07-3.6,.91-3.83,3.14Zm476.78-413.3c-6.95-.8-11.06-2.59-14.74,.94-1.3,1.25-.09,3.69,1.4,4.76,5.26,3.81,7.25-2.02,13.34-5.7ZM30.64,703.41c-.4-2.02-.89-4.72-3.97-4.17-2.69,.48-3.38,3.26-3.33,5.53,.05,2.37,1.43,4.81,4.18,4.41,2.8-.41,2.99-3.22,3.12-5.76Zm-10.51-23.76c-1.37,6.21-3.12,10.69,3.67,14.09,1.63-5.47,1.09-9.38-3.67-14.09ZM6.42,492.04q4.07-6.23,.79-12.07-2.11,5.9-.79,12.07ZM652.92,149.04c-.33-1.79-1.01-3.46-3.25-3.42-2.05,.04-3.76,1.12-3.8,3.29-.04,1.95,1.09,3.28,3.27,3.27,2.05-.01,3.72-.78,3.78-3.14Zm46.67,74.12c-.71-1.61-.85-4.33-4.28-3.5-1.5,.36-2.39,1.76-2.28,3.17,.2,2.59,1.91,4.01,4.64,3.78,1.69-.14,2.04-1.67,1.92-3.46Zm-210.31,838.23c-1.34,.4-2.83,.83-2.53,2.54,.08,.44,1.58,1.04,2.18,.83,1.2-.44,3.07-1.32,3.17-2.13,.21-1.74-1.62-1.23-2.81-1.24Zm-281.78-83.33c-1.19-2.93-2.48-3.25-3.9-2.81-1.46,.45-2.4,1.65-1.88,3.03,.52,1.37,2.07,1.55,3.47,1.19,1.5-.39,2.35-1.31,2.32-1.41Zm-127.06-135.51c-1.92,0-2.8,.96-2.65,2.33,.06,.59,1.1,1.27,1.84,1.49,1.29,.37,2.76,.14,2.91-1.45,.13-1.36-1.02-2.12-2.1-2.37Zm174.19-112.23c-.15-1.89-.62-3.37-2.27-2.77-.97,.35-1.95,1.93-2.1,3.03-.18,1.3,1.03,2.64,2.46,2.24,.91-.26,1.46-1.86,1.92-2.5Zm-11.8-31.77c-.15-1.1-.91-1.79-1.81-1.28-.53,.3-.89,1.61-.68,2.25,.22,.68,1.2,1.1,1.86,1.63,.21-.86,.42-1.73,.63-2.6ZM519.73,48.63c-.26,.33-.76,.69-.74,.98,.08,1.04,.83,1.41,1.95,.97,.33-.13,.54-.61,.81-.93-.67-.34-1.34-.68-2.02-1.02Z" fill="#fcfcfc"/><path d="M761.84,347.19c-3.66-6.85-2.64-12.61-6.62-16.19-2.97-2.67-1-7.06-1.09-10.69-.03-1.47,.96-2.69,2.42-3.02,1.49-.33,3.07,.37,3.06,1.82-.07,8.6,5.93,16.04,2.23,28.09Z" fill="#fcfcfc"/><path d="M784.39,553.29c-.93-.98-1.81-1.46-2.01-2.19-1.3-4.68-.89-10.85,2.91-12.73,5.36-2.65,3.51,2.34,2.61,5.44-.51,1.78-.59,3.66-.87,5.5-.21,1.38-.26,2.84-2.65,3.99Z" fill="#fcfcfc"/><path d="M782.9,478.79c.4-6.44-2.23-10.35-3.51-15.57q9.87,5.4,3.51,15.57Z" fill="#fcfcfc"/><path d="M98.07,750.37c1.42,3.35,1.92,4.56,2.44,5.76,1.14,2.6,1.8,5.18-1.13,7.15-.59,.39-1.89,.55-2.31,.18-2.33-2.04-1.97-4.7-1.09-7.38,.41-1.24,.89-2.45,2.09-5.7Z" fill="#fcfcfc"/><path d="M590.43,1026.47c5.59-2.88,11.15-5.86,17.24-7.31-6.34,9.71-6.72,9.87-17.24,7.31Z" fill="#fcfcfc"/><path d="M701.69,883.26c5.88,9.19,5.82,9.59-5.24,19.08,4.82-7.82,5.62-13.5,5.44-19.32,0-.01-.2,.24-.2,.24Z" fill="#fcfcfc"/><path d="M485.96,1076.53c-.7,2.66-2.55,3.67-4.87,3.44-2.11-.21-4.67-.82-4.73-3.45-.06-3.17,2.63-3.03,4.77-2.96,2.09,.07,4.34,0,4.82,2.97Z" fill="#fcfcfc"/><path d="M108.51,778.12c.91,0,1.82,.02,2.74,.02l-.28-.23c-.66,5.34,6.01,9.76,1.48,17.02-4.13-5.86-3.58-11.58-3.74-17.1l-.19,.29Z" fill="#fcfcfc"/><path d="M786.53,456.32c-2.63-1.82-3.8-2.42-4.71-3.3-1.83-1.77-4.62-3.86-.55-6.28,2.89-1.72,3.79,1.18,4.49,3.31,.4,1.22,.35,2.63,.76,6.28Z" fill="#fcfcfc"/><path d="M757.88,308.46c-.44,.29-1.48,1.32-2.66,1.71-3.85,1.26-3.93-2.1-4.68-4.37-.42-1.27,.15-2.98,1.61-3.14,3.05-.35,4.52,1.7,5.73,5.8Z" fill="#fcfcfc"/><path d="M787.24,590.84c-.34,2.47-1.6,4.45-4.05,4.99-1.6,.36-2.19-1.1-2.03-2.57,.21-1.99,1.16-3.77,3.11-4.35,1.36-.41,2.6,.2,2.97,1.93Z" fill="#fcfcfc"/><path d="M274.79,1028.74c-3.92,.52-6.5,.93-8.25-1.52-.29-.41,.14-2.07,.58-2.25,2.95-1.24,4.64,1,7.68,3.77Z" fill="#fcfcfc"/><path d="M766.04,431.16c1.95,.08,3.47,.97,4.06,2.83,.47,1.5-.29,3-1.96,2.99-1.82,0-3.59-.91-4.18-2.74-.46-1.42,.44-2.69,2.08-3.09Z" fill="#fcfcfc"/><path d="M243.06,999c1.21-.58,2.39-1.22,3.62-1.74,1.74-.74,3.47-1.21,4.21,1.31,.12,.4,.09,.95-.09,1.32-1.01,2.1-2.58,2.13-4.28,1.11-1.13-.68-2.16-1.53-3.25-2.28-.01,.02-.21,.28-.21,.28Z" fill="#fcfcfc"/><path d="M108.71,777.83c-.42,.15-.84,.45-1.25,.43-2.23-.06-4.15,4.43-6.53,.67-.36-.57-.19-2,.29-2.53,3.46-3.8,5.22-.31,7.3,1.72,0,0,.2-.29,.2-.29Z" fill="#fcfcfc"/><path d="M171.96,126.26c-.22-3.39,1.86-5.72,4.21-7.99,.89,3.84-1.35,6.04-4.46,7.8l.25,.19Z" fill="#fcfcfc"/><path d="M784.62,615.72c-.74,.79-1.4,1.81-1.67,1.73-1.03-.32-1.93-1-2.88-1.54,.5-.57,1.13-1.67,1.46-1.6,1.06,.22,2,.88,3.09,1.42Z" fill="#fcfcfc"/><path d="M761.02,720.08c.45,.37,.99,.82,1.53,1.27-.93,.85-1.76,1.92-2.81,2.48-.91,.48-1.74-.25-1.53-1.25,.3-1.43,1.29-2.33,2.81-2.5Z" fill="#fcfcfc"/><path d="M327.13,1039.54c.14-.34,.37-.99,.41-.98,.64,.2,1.26,.47,1.88,.73-.15,.35-.29,.71-.44,1.06-.62-.27-1.24-.54-1.86-.81Z" fill="#fcfcfc"/><path d="M780.27,426.24c-.73,.37-1.6,1.15-2.16,1-.56-.15-.81-1.24-1.2-1.91,.71-.39,1.61-1.22,2.09-1.04,.6,.22,.86,1.27,1.27,1.96Z" fill="#fcfcfc"/></g></g></g></g></svg>