<?xml version="1.0" encoding="UTF-8"?><svg xmlns="http://www.w3.org/2000/svg" width="1080" height="709.63" viewBox="0 0 1080 709.63"><g id="a"/><g id="b"><g id="c"><g id="d"><path d="M0,354.26c0-81.4,11.56-129.06,18.49-139.1l10.04-1.81V84.27h36.57v-14.78h17.12v-17.76h225.31l1.38-13.38c2.39-3.92,18.68-15.25,68.65-24.96C422,4.74,479.69,0,540,0s118,4.74,162.44,13.38c49.97,9.71,66.26,21.05,68.66,24.96l1.38,13.38h224.78v17.76h17.11v14.78h36.57V214.5l10.78,.97c6.94,10.68,18.27,58.2,18.27,138.81s-11.32,128.12-18.27,138.8l-10.78,.97v130.22h-36.57v14.79h-17.11v17.77h-226.04l-.13,14.57c-2.64,4.02-19.12,15.24-68.62,24.85-44.46,8.63-102.16,13.39-162.47,13.39s-118.02-4.76-162.47-13.39c-49.51-9.61-65.98-20.83-68.63-24.85l-.13-14.57H82.22v-17.77h-17.12v-14.79H28.53v-129.07l-10.04-1.81C11.56,483.32,0,435.66,0,354.26Z" fill="#fcfcfc"/></g></g></g></svg>