<?xml version="1.0" encoding="UTF-8"?><svg xmlns="http://www.w3.org/2000/svg" width="709.63" height="1080" viewBox="0 0 709.63 1080"><g id="a"/><g id="b"><g id="c"><g id="d"><path d="M354.26,1080c-81.4,0-129.06-11.56-139.1-18.49l-1.81-10.04H84.27v-36.57h-14.78v-17.12h-17.76v-225.31l-13.38-1.38c-3.92-2.39-15.25-18.68-24.96-68.65C4.74,658,0,600.31,0,540c0-60.31,4.74-118,13.38-162.44,9.71-49.97,21.05-66.26,24.96-68.66l13.38-1.38V82.73h17.76v-17.11h14.78V29.05H214.5l.97-10.78C226.14,11.32,273.67,0,354.27,0c80.61,0,128.12,11.32,138.8,18.27l.97,10.78h130.22v36.57h14.79v17.11h17.77v226.04l14.57,.13c4.02,2.64,15.24,19.12,24.85,68.62,8.63,44.46,13.39,102.16,13.39,162.47s-4.76,118.02-13.39,162.47c-9.61,49.51-20.83,65.98-24.85,68.63l-14.57,.13v226.56h-17.77v17.12h-14.79v36.57h-129.07l-1.81,10.04c-10.05,6.93-57.71,18.49-139.11,18.49Z" fill="#fcfcfc"/></g></g></g></svg>