<?xml version="1.0" encoding="UTF-8"?><svg xmlns="http://www.w3.org/2000/svg" width="1080" height="1080" viewBox="0 0 1080 1080"><g id="a"/><g id="b"><g id="c"><g id="d"><path d="M1024.04,404.9L675.1,55.96c-74.61-74.61-195.58-74.61-270.2,0L55.96,404.9c-74.61,74.61-74.61,195.58,0,270.2l348.94,348.94c74.61,74.61,195.58,74.61,270.2,0l348.94-348.94c74.61-74.61,74.61-195.58,0-270.2Zm-168.18,199.99l-250.97,250.97c-35.84,35.84-93.95,35.84-129.79,0l-250.97-250.97c-35.84-35.84-35.84-93.95,0-129.79l250.97-250.97c35.84-35.84,93.95-35.84,129.79,0l250.97,250.97c35.84,35.84,35.84,93.95,0,129.79Z" fill="#fcfcfc"/></g></g></g></svg>