<svg xmlns="http://www.w3.org/2000/svg" width="1080" height="775.43" viewBox="0 0 1080 775.43"><g id="Layer_2" data-name="Layer 2"><g id="mask03_464554244"><path id="mask03_464554244-2" data-name="mask03_464554244" d="M94.6,665.45C58.78,609.08,59.92,523.12,50.29,453.19c-10.4-75.64-15.61-147.55-31-235.7C12,175.36-16.9,56.32,13.94,20.89c14.12-16.23,40-9,57-9.27C356.27,8,642.1,11.8,927.31.22,944.05-.45,961.12,0,977,7.52c39.64,18.79,44,77.21,55.12,126.59,18.54,82.77,23.55,164.31,31.21,249.64,7.84,87.44,16.7,183,16.67,271.12,0,29.91.13,61.28-10.92,88.66-12.17,30.15-47,33-69,31.62-278.69-17.49-556.75-49.7-835-77.29C139.22,695.27,114,695.34,95,666A6.22,6.22,0,0,0,94.6,665.45Z" fill="#fcfcfc"/></g></g></svg>