<svg xmlns="http://www.w3.org/2000/svg" width="1080" height="373.92" viewBox="0 0 1080 373.92"><g id="Layer_2" data-name="Layer 2"><g id="mountains_61757369"><g id="mountains_61757369-2" data-name="mountains_61757369"><path d="M183.22,351.71c-12.86,0-16.4-7.88-7.87-17.48L360.19,126a25.19,25.19,0,0,1,33.9-3L417,141.67,504.1,8.15c7-10.8,18.52-10.87,25.65-.18l56,83.43L605.7,60c6.59-11,18-11.4,25.32-.83L730.67,203.1c7.3,10.58,19.61,10.82,27.33.52l10.52-14a25.1,25.1,0,0,1,33.5-5.73l90.84,60.59c10.7,7.11,25.34,21.67,32.53,32.34l37.4,55.52c7.16,10.68,2.52,19.4-10.34,19.4Z" fill="#fcfcfc"/><path d="M80.72,362.73c-12.86,0-17.29-8.49-9.87-19l6.5-9.2c7.43-10.49,22.71-24.15,34-30.37l106-58.47c11.27-6.2,28.31-4.26,37.9,4.31L283,274.85a24.82,24.82,0,0,0,33.82-1.09l72.94-74.12c9-9.16,25.13-10.78,35.81-3.63l49.26,33.16c10.68,7.15,29.34,9.54,41.46,5.31l11.41-4c12.14-4.23,31-2.21,42,4.56l77.69,47.93c11,6.74,29.74,8.47,41.73,3.84l35.09-13.56c12-4.63,25.48-8.4,30-8.4s18.08,3.58,30.17,7.93l76.83,27.77c12.09,4.35,31.64,4.24,43.41-.25s30.87-3.49,42.36,2.24l93,46.37c11.5,5.73,10.4,10.47-2.46,10.51Z" fill="#fcfcfc"/><path d="M851.12,316.62c-2.49-5.94-6.53-5.94-9,0L827.34,352c-2.45,5.94.77,10.8,7.2,10.8h24.14c6.43,0,9.65-4.86,7.18-10.8Z" fill="#fcfcfc"/><path d="M947.72,352.9,937,327.15c-2.48-5.93-6.52-5.93-9,0L917.27,352.9c-2.47,6,.75,10.8,7.18,10.8h16.1C947,363.7,950.2,358.85,947.72,352.9Z" fill="#fcfcfc"/><path d="M366,287.13c-2.47-5.91-6.51-5.91-9,0l-26.58,63.75c-2.46,5.94.78,10.8,7.21,10.8h47.74c6.44,0,9.67-4.86,7.21-10.8Z" fill="#fcfcfc"/><path d="M763.63,325.57c-2.45-5.93-6.5-5.93-9,0L750,336.75l-11.66-28c-2.48-5.91-6.52-5.91-9,0L713,347.91c-2.48,5.92.78,10.78,7.21,10.78H742.8c.91,2.9,3.68,4.83,7.72,4.83h17.24c6.43,0,9.69-4.86,7.2-10.8Z" fill="#fcfcfc"/><path d="M224.36,304c-2.48-5.93-6.53-5.93-9,0l-15.17,36.39-8.81-21.12c-2.48-5.91-6.53-5.91-9,0l-17.3,41.49c-2.48,5.94.76,10.8,7.19,10.8h29.2c5.85,0,9-4,7.7-9.23H237c6.43,0,9.66-4.86,7.18-10.8Z" fill="#fcfcfc"/><path d="M424.65,322.21c-2.48-5.91-6.53-5.91-9,0l-14.11,33.88c-2.48,5.91.76,10.77,7.19,10.77h22.84c6.42,0,9.66-4.86,7.18-10.77Z" fill="#fcfcfc"/><path d="M516.24,294.7c-2.47-5.94-6.52-5.94-9,0l-21.08,50.56c-2.47,5.94.77,10.81,7.2,10.81h36.77c6.43,0,9.67-4.87,7.19-10.81Z" fill="#fcfcfc"/><path d="M1067.14,348.2H12.86a12.86,12.86,0,0,0,0,25.72H1067.14a12.86,12.86,0,0,0,0-25.72Z" fill="#fcfcfc"/></g></g></g></svg>