<svg xmlns="http://www.w3.org/2000/svg" width="1040.45" height="716.68" viewBox="0 0 1040.45 716.68"><g id="Layer_2" data-name="Layer 2"><g id="mask03_000000"><path id="mask03_000000-2" data-name="mask03_000000" d="M1034.27,326.17h0a86.92,86.92,0,0,0,0,64.34h0A86.93,86.93,0,0,1,1002,494.81l-25.43,17.1a86.92,86.92,0,0,0-32.24,40l-11,27.54a86.94,86.94,0,0,1-65.34,53.38L788.8,647.07a87,87,0,0,0-33.1,13.42l-61.54,41.39a86.88,86.88,0,0,1-63.93,13.42l-94.59-17a87.25,87.25,0,0,0-30.83,0l-94.59,17a86.88,86.88,0,0,1-63.93-13.42l-61.54-41.39a87,87,0,0,0-33.1-13.42L172.4,632.79a86.94,86.94,0,0,1-65.34-53.38l-11-27.54a86.92,86.92,0,0,0-32.24-40l-25.43-17.1A86.93,86.93,0,0,1,6.18,390.51h0a86.92,86.92,0,0,0,0-64.34h0A86.91,86.91,0,0,1,38.42,221.88l25.43-17.11a86.92,86.92,0,0,0,32.24-40l11-27.54A86.94,86.94,0,0,1,172.4,83.89l79.25-14.28a87,87,0,0,0,33.1-13.42L346.29,14.8A86.88,86.88,0,0,1,410.22,1.38l94.59,17.05a87.25,87.25,0,0,0,30.83,0l94.59-17A86.88,86.88,0,0,1,694.16,14.8L755.7,56.19a87,87,0,0,0,33.1,13.42l79.25,14.28a87,87,0,0,1,65.34,53.38l11,27.54a86.92,86.92,0,0,0,32.24,40L1002,221.88A86.91,86.91,0,0,1,1034.27,326.17Z" fill="#fcfcfc"/></g></g></svg>