<svg xmlns="http://www.w3.org/2000/svg" width="1080" height="467.32" viewBox="0 0 1080 467.32"><g id="Layer_2" data-name="Layer 2"><g id="mask02_464554244"><path id="mask02_464554244-2" data-name="mask02_464554244" d="M1062,327c-.19,22.81-2.42,47.2-12.9,66a64.93,64.93,0,0,1-6.6,9.72c-19.73,23.91-51.74,25.11-78.54,25.1-35.56,0-70.87.59-106.43,2-208.58,9.07-417.43,14.05-625.78,28.77q-36.39,2.56-72.77,5.51c-31.39,2.55-62.14,9.69-90.31-12.1C27,419.78,30,356.54,22.12,306A1919.83,1919.83,0,0,1,2,108.31C.64,82.4-3,48.76,5.11,23.75,16-9.81,49.05,1,72.78,4.23c40,5.42,80.49,7,120.64,9.66C383.36,26.57,574.09,32.14,764.19,37.18c50,1.32,109.44-4.89,159.49-3.62,43.26,1.1,83.84-1.34,125.58,13.44,31.86,11.19,30.45,41.29,30.73,75.21C1080.57,191.81,1062.56,258,1062,327Z" fill="#fcfcfc"/></g></g></svg>