<svg xmlns="http://www.w3.org/2000/svg" width="1080" height="648.74" viewBox="0 0 1080 648.74"><g id="Layer_2" data-name="Layer 2"><g id="mask07_000000"><g id="mask07_000000-2" data-name="mask07_000000"><path d="M865.59,360.27V644.41H446.28l-231.89,4.33,358.84-185.6C598,465,606.4,495.07,606.4,495.07l38.39,36.47a17.13,17.13,0,0,0,23.37,0l57.77-54.88a15.17,15.17,0,0,0,0-22.21L687.54,418s-32.07-8.07-33.65-32l-56.24-53.44-24.38-3.26S494.43,250.05,401,322.94c-4.44,3.46-1.78,10.32,4,10.25,21.64-.24,71.81-4.54,108.07,53.33l-4.21,15.86,12.75,12.11L214.39,648.74V360.27L540,119Z" fill="#fcfcfc"/><path d="M1073.66,409H930.91a6.49,6.49,0,0,1-3.89-1.27L540,121,153,407.72a6.54,6.54,0,0,1-3.9,1.27H6.34c-6,0-8.64-7.23-3.89-10.75L540,0,797.79,191V86.7a6.18,6.18,0,0,1,6.33-6H924.79a6.19,6.19,0,0,1,6.33,6v203l146.43,108.5C1082.3,401.76,1079.68,409,1073.66,409Z" fill="#fcfcfc"/><polygon points="758.16 587.43 214.39 648.74 361.51 278.62 758.16 292.68 758.16 587.43" fill="#fcfcfc"/></g></g></g></svg>