<svg xmlns="http://www.w3.org/2000/svg" viewBox="-8.439973831176758 -4.649999618530273 359.4399719238281 226.19998168945312"><title>Depositphotos_79776766</title><g data-name="Layer 2"><path d="M349.44 172.78c-1.63 17-20.76 4.71-30.22 8.08-22 7.84 12.36 23.79-1.31 33.54-10 7.15-22.89-2.6-33.18-3.51-11.7-1-20 7.07-31.65 3.13-5.24-1.77-7.69-4.51-13.74-4.72-7-.24-13.37 3.49-20.24 4.07-12.53 1.06-22.63-7.28-35.31-5.76-8.1 1-23.52 7.77-30.57.1-6.1-6.63-.37-18.71 1.81-25.89 5.62-18.51 14.18-24.51 33.55-23.55 17.3.86 43.6 5.55 52.88-14.48-12 5.14-19.32-5.17-29.34-10-11.37-5.52-23-6.61-33.31 1.82 9.46-9.37 6.84-21.36 1-32-4.1-7.46-18.16-17.95-8.29-26.15-17.52 5.37-17.19 21.08-15 36.29 2.45 17 4.6 29.7-9.45 42.28-17.07 15.3-32.47 27.87-46 46.59-6.7 9.25-10.63 5.21-21.23 6.17-11.33 1-19.6 4.51-31.17 3.06-12.67-1.58-23.6 3.71-35.67 2.69-8.44-.71-18.15-6.88-9.69-15 8.82-8.48 20.42-.12 28.47-5.05 13.67-8.39-7.5-12.27-10.69-16-9.29-10.75 10.5-12 17.47-11.36 6.31.58 13.51 3.64 14.41-4.86 1.48-14-30-15.67-38.47-22.41-11-8.75-22.94-38.81-2.24-45.52 15.53-5 14.86 28.17 22.71 36.32 4.15 4.31 9.14 5.17 14.28 7.71 4 2 6.79 5.33 10.6 7.52 5.64 3.23 20.42 5.51 23.44-3.29 3.33-9.71-17.91-15.75-24.15-17.8-6.58-2.16-15.25-3.37-14.83-12.16.51-10.62 9.06-8.93 15.67-6.64 10 3.46 30.84 2 14-9.26-6.38-4.27-14.24-7-15.41-15.73s7.22-14.5 15.33-9.63c7.62 4.56 3 16.08 10.09 20.11 9.68 5.46 7.62-7.12 6.81-11.93-1.24-7.36-1.66-9.56 7.67-8.05 4.5.73 14.33 5.76 11.9-5.41-1.57-7.21-17.49-9.73-23.95-10.24-8.94-.71-21.65 6.1-29.4.65-8.48-6-4.56-15.67 2.53-20.69 9-6.4 19.68-5.17 29.28-1 14.1 6.15 27.54 21.87 43 24.55 6 1 12.16-1.22 9.82-8.81-2-6.37-11-7.18-15.7-10.55-7.39-5.29-18.59-21-16.09-30.69 1.71-6.64 8.41-8.79 14.93-6.52 7.71 2.69 9 9.67 10 16.86.74 5.39.81 20.62 9.52 19.45 5.87-.78 5.88-12.43 14.44-9.86 9.85 3-1.33 42.19 18 30.49C187.74 53.1 188 29 194.4 18.83c9.4-14.92 31.21-23.48 48-16.18 8 3.51 15.4 12.18 11.53 21.47-4 9.57-14.11 8.56-22.6 8.13-12.46-.62-35.52 8.1-32.45 25.32 1.66 9.29 12.38 10.2 19.16 5.19 4.53-3.35 7.41-14.18 14.37-8.51 9.74 7.95-4.4 13.84-8.09 18.06-4 4.54-10.12 23.36-1.22 25.69 7.13 1.86 15.89-13.77 20.09-17.76a48 48 0 0 1 13.93-9.13c11.63-5.19 25.2-8.27 38-7.87 10.78.34 23.06 3.36 26.45 15 5.7 19.53-12.52 25.5-26.82 16.63-16-9.94-36.45-6.77-49.22 7.7-3.69 4.18-11.88 15.52-1 15.69 9.06.14 15-15 26.13-8.53 14.85 8.72-24.37 32.09-3.43 35.15 8.4 1.23 17.29-5.54 20.2-12.62 2.54-6.18 1.91-15.4 12.06-9.61 8.2 4.68 7.42 15.35 1.11 20.7s-17.7 4.44-22.85 11.77c-7.2 10.23 6.31 15.79 15.24 15.72 10.28-.08 19.17-6.82 28.19-10.92 10.52-4.8 29.82-3.16 28.26 12.86z" fill="#fff" fill-rule="evenodd" data-name="Layer 1"/></g></svg>