<svg xmlns="http://www.w3.org/2000/svg" viewBox="-0.000057220458984375 -0.03002166748046875 500.00006103515625 366.6400146484375"><title>Depositphotos_113375442</title><g data-name="Layer 2"><path d="M500 213.91c-1.34-2.8-41.28-74.65-49.08-55.87-5.41-23.2-37.22-43.35-58.38-27.93-9.6-21.85-63.21-29.21-55.12 5-8.28-11.68-32.18-23.28-45.15-13.54-5.28 4-6.86 10.73-9.85 16.27-2.61 4.84-7 8.55-9.49 13.18-4.21 7.75-4.82 16.7-9.74 24.71 2.24-2.92 15.08-17.81 20.71-16.29 8 2.17 4.59 19.37 1.86 24.31-6.23 11.31-12.38 14.12-3.21 26 6.92 9 12.67 18.53 7.84 29.95a55.08 55.08 0 0 0-1-8.71c-2.14 5.74-5.78 8-12 6.61 8.26-2.13 8.95-8.88 4.5-15.15 1.59 6.4-1.39 12.5-8.18 13.27 10-7.6-3.26-32.55-13.32-34.79 6.08-6.49 9.51 3 9.51-10.42-2.42 3.35-7 5.63-9.13 9-1.72 2.76-2 6.33-3 9.73-2.48 8.29-6.89 15.92-10.26 23.85-9.45 22.24-9.88 44 1.62 65.83-2.1-10.07 2.34-14.58 2.34-25.05 5.47 21.61 7.37 44.3 2.88 66.27a34.76 34.76 0 0 0 7.48-7c-2.89 12.24-8.93 23.17-16 33.47 1.08-11.55-.25-23-5.57-33.47a37.28 37.28 0 0 0 8.7 7 57 57 0 0 0-13.41-35.87c-4.45-5.3-12.87-10.38-15.08-17.21 6.47 6.94 15.15 7.27 21.18 15.28-5.09-12.27-15.25-19.66-17.37-33.85-1.66-11.1.86-22.07 4.45-32.53 3.09-9 9.35-18.94 10.32-28.48 1-10.15-3.14-8.79-9-16.93 0 13.38 3.43 3.93 9.5 10.42-10 2.22-23.29 27.17-13.32 34.79-6.84-.77-9.74-7-8.17-13.27-4.51 6.36-3.55 13.07 4.5 15.15-6.17 1.36-9.81-.87-12-6.61a55 55 0 0 0-1 8.71c-5.41-12.78 2.34-21.47 9.14-31.48 7.67-11.28 1.12-14.23-4.52-24.49-3.25-5.91-5.75-23.13 3.12-23.69 6.36-.4 16.36 11.63 19.45 15.66-5.09-8.28-5.75-18.17-10.65-25.9-3.12-4.92-6.94-8.74-9.63-14.18-2.45-4.94-4.19-10.61-8.79-14.07-13-9.74-36.89 1.89-45.15 13.54 8.1-34.27-45.51-26.89-55.12-5-21.16-15.41-53 4.73-58.38 27.93-7.7-18.69-47.5 52.66-49.03 55.85 5.48-45.09 18.26-92.52 45.11-129.79a201.73 201.73 0 0 1 32.55-35 278 278 0 0 1 30.22-22.4c5.25-3.39 15.57-7 19.47-11.65 4.08-4.89 3.85-10.86 9.82-15.1-10.62 21.45 9.6 42.09 25 55.28a136.39 136.39 0 0 0 37.43 23 108.51 108.51 0 0 0 23.76 6.6c2.26.35 9.51 2.48 11.67 1.15s5.35-7.45 1.63-6.74c2.38-2.62 7.23-10.67 1.28-8.2 4.31-7.47.43-12.88.43-20.32-6.55 7.88-10.49 19.48-12.82 29.29-.24-13.84 3.66-30.62 12.82-41.5a31.24 31.24 0 0 0-9.48 10.08c1.12-5.45 4.51-9.25 7.11-13.92 2-3.67 2.86-8.45 5.36-12a16 16 0 0 0-5.47 4.27c5-14.44 23.16-14.38 28.18 0a16 16 0 0 0-5.47-4.27c2.51 3.58 3.33 8.36 5.37 12 2.6 4.68 6 8.47 7.1 13.92a31.36 31.36 0 0 0-9.48-10.08c9.17 10.91 13 27.63 12.8 41.5-2.32-9.8-6.26-21.41-12.8-29.29 0 7.3-3.76 13.06.42 20.32-5.95-2.47-1.1 5.58 1.28 8.2-4.47-.85-.25 5.59 1.63 6.74s11.92-1.14 14-1.51a109.55 109.55 0 0 0 21.47-6.24 136.8 136.8 0 0 0 37.43-23c15.44-13.16 35.65-33.85 25-55.28 7.19 5.11 8.11 13.13 15 18 5.93 4.22 12.63 7.55 18.69 11.61a266.35 266.35 0 0 1 30.3 23.46 201.19 201.19 0 0 1 31 35.24C482.6 125 494.71 170.41 500 213.91z" fill="#fff" data-name="Layer 1"/></g></svg>