<svg xmlns="http://www.w3.org/2000/svg" viewBox="-1.2900238037109375 -0.3600001335144043 634.4500732421875 402.5199890136719"><title>Depositphotos_63665305</title><g data-name="Layer 2"><path d="M242.32 276l-.27-.07a1.41 1.41 0 0 1 .27.07zm388.21-163.09l.2.1zm-.37-.19l.37.19zm-2-1l.52.26zm.52.26l1.43.73zM627 122.5c-5.61 2.38-15.27-4.37-19.69-6.91-8-4.61-4.81-6.49-13.89-.74-5.38 3.41-8.27 7.34-9.35 13.24-2.48 13.61-12.49 49.53-38.53 82.07s-94 74.07-97 78.19c-7.11 9.81-18.1 17.15-25.15 27.42-8.71 12.68-14.59 24.92-25.61 35.54-.83.8-1.68 1.59-2.53 2.37a38.74 38.74 0 0 1-2.47 10.24c-1.69 4.41-3.44 9.34-5.94 13.36-5.15 8.26-12.23 15.24-19.36 21.79-3.37 3.09-8-2.32-4.6-5.41 6.4-5.88 12.93-12.09 17.55-19.51a68.11 68.11 0 0 0 5.63-12.52c0-.11.07-.21.11-.32-20.36 15.71-46.82 27.27-73.73 25.15-16.08-1.27-13.66-6.78 1.24-6.78.43 0 1.08 0 1.92-.06-.24-.24-.47-.47-.67-.71-1.21-1.38-2.78-4.53.28-4.74s6.38 2.19 8.26 4.33l.21.26a127 127 0 0 0 49-18.77A90.43 90.43 0 0 0 389 347a2.73 2.73 0 0 1 .24-.24c12.22-12.75 13.2-23.46 15.22-27.47-8.32.47-19-3.67-27.45-4.81-7.92-1.06-13.45-4.78-3.07-7.43 2.74-.7 16.92 7.08 37.21.47 4-1.29 15.39-16.08 17-16.8-29.45-1.68-56.12 4.19-58.73 2.8-5.1-2.7-23.43 3-31.55 3.49-1.7.11-22.4 8.43-19.15-.83 1.07-3.06.2-3-3.71-3.34-4.15-.39-24 .64-20-7.23-9.37-.2-11.91-10.15-1.64-9.8 5.65.19 9 4.83 14.21 5.44 4.29.51 9.26-.74 11.71 3.59 3.86-4.24 18.6-2.87 24-2.72 6.83.2 9.54-3.21 14.62-6.53a95.9 95.9 0 0 1 16.56-8.47c5-2.25 4.51-4.06 4.62-9.24.21-10.32-8.88-3-13.25-6.65-9.41-7.93-3-5.79 6.34-7.92s19.39-10.3 16.32-20c-3.81 7-11 11.59-18.91 14.44-.91 2-1.57 3.2-1.91 3.25-1.34.19-2.66-.5-4.11-1.42q-1 .25-2 .47c-6.45 1.42-33 6.53-35.16 1-1.68-4.28 2.71-3 11.34-4.46 2.33-.41 6.63-1.12 11-2 .83-8.46 10.86-28.22 16-37.62-4.15 1.29-8.28 2.65-12.41 4-11 3.59-16.5 6.6-21.35 16.08-8.51 16.62-56.41 54.22-63.86 57.16-6.29 2.48-72.14 41.9-79.32 45.89-5 2.76-35.94 19.25-58.79 30.72v.21a52.6 52.6 0 0 1-2.4 8.77c-1.74 4.53-2.18 9.14-3.48 13.75-1.25 4.42-8 2.09-6.72-2.29.39-1.37 2.11-12.72 2.69-16.05-6.15 2.95-12.56 6.38-14.3 6.78-9.29 2.16-18.84 2.11-28.18 4.8-11.53 3.32-17.06 7.26-28.82 3.82-7.39-2.16-21.28-.7-19.36-7.65s12.71-1.42 16.53-2.33c-3.6-10 10.77-2.61 14.65-6.57 6.22-6.34 21.91 6 27.57 1.22C82 355 74.55 349 78 347.17c5.28-2.83 12.55 4.55 17.54 5.9 3.35.9 20.9-4.56 25.48-11.56 1.71-2.61 12.81-35.12 14.82-35.47-1.75-5-14.79 1.23-11.52-7.67s15.18-3.25 21.32-7.65c0 0 6.88-5.9 10-13.24 2-4.76-10.75-4.6-9.95-11.92.89-8.09 11.33 4.84 14.87 2.91 0 0 13.6-20.79 20.43-27.86-5.75 2.7-28.85 2.1-24.69-7.79 9.33 5 27.77 1.15 36-3.76-1.75-3.58-13-.23-9.28-5.33s15.31 2.29 21.84-4.69c3.7-4 6.92-7.8 11.15-11.31 6.38-5.29 20.35-14.8 20.64-23.47.17-5.2-5.25.64-7.69-1.62-5.65-5.24-17.78-.26-25 3.09-9.93 4.6-45 20.53-53.36 22.67-4.8 6.54-15.7 6.64-19.7 13-3.54 5.66-5.26 12.72-14.2 9.73-16.31-5.38-26.7 16.57-89.41 6.87-10.3-1.59-24-6.6-26.29-7.85s-1.13-6.07 7.92-4.08c3.28.73 6.84 3.87 10.06 1a4.92 4.92 0 0 1 5.83 0c5.62 2.85 10.6 7 17.52 6.09 7.52-1 1.71-2 3.5-5.19s8.84 1.65 10.55 2.6c5.26 2.94 6.36 1.74 12.25 1.67 6.69-.07 14.12.32 19.27-4.45-7-7.54 14.57-5.26 18-5.19-.78-1.86-4.89-9.58-6.22-10.78-4.41-3.82-13.68-5.02-11.97-9.14s10.7 1.27 16.29 4.22c2.65 1.39 8.08-1.88 10.7-2.32 4.17-.68 6.18 1.34 8.57 4.06 4.35 5 10.71-1.22 16.58-2.69-1.48-2.39-5.46-3.84-4-7.4s6.63-3.34 12-1.4a14.79 14.79 0 0 0 7.8.18 67.53 67.53 0 0 0 14.91-5.4c12.17-6.2 24.2-11.76 38.67-16.34-13.21-5.8-25.26 3.33-38.14 4.13-10.23.64-21.66-5.87-28.78-11.95 4.73-2.21 9.55.94 14.27-1.69 4.22-2.36 9.15-3.27 13.89-4.26-.43-5.78-18.51 3.92-8.26-4.81-3.26-.85-5.76-3.34-9.07-3.91a57.23 57.23 0 0 1-7 0c-3.37-1.08-3.39-4.62-7.76-4.14-5.23.58-20-4.94-8.77-8.55-3.72.17-17-2.9-10.67-8.4 7.51-6.53 11.35-2.86 13.84-.79s11.48 6.66 14.48 8c-2.64-4.41 1-7.36 5.74-7.87 8.41-.91 3.87 5.89 5.36 11.38 3.68 13.55 22.44 11.92 30.41 21.82 4.62-4.83-8.06-25.28 5.25-18.71 3.14 1.56 8.22 4.64 8.07 8.48-.1 2.51-5.67 5.79-2.57 8.15 18.21 13.85 36.67 5.46 57.7 7.69-1.45-4.16-11.29-9.2-6.53-11.69s8.7 4 14.77 11.16c12.51 1.49 42.44.05 63.6-1.37 13.57-.91 26.94-5.35 40.3-8.65-.46-13.83-4.68-43.39-2.25-62.16S378 60.7 387.78 45.25c6.53-10.27 13.14-8.55 13.14-8.55S419.6-.36 448 0c21.93.28 25.77 16.5 25.77 16.5a64.72 64.72 0 0 0 9 4.87c6.61 3.16 7.5 5.09 7.5 5.09a54.75 54.75 0 0 1-13.33 4.24c-8 1.63-11.26 11.35-7.45 23.63s.27 29.44-4.68 45c-4.2 13.26-9.57 28.91-17.39 42.09l20.12-4.79 6.48-1.57c-1.35-4.92-6.82-9.3-6.82-17.32s.62-27.56 6.89-40.09 18.8-22.55 23.8-26.31 5.9-8.89 3.65-10-5.63-.15-9.14-.5a72.52 72.52 0 0 0-10.48-.15 40.06 40.06 0 0 1 5.57-6.55c2.44-2.31 6.31-4.42 7-6 1.78-3.76 6-22.52 27.78-25.06s30.08 13.5 30.73 18.51 3.13 10.34 5 14.72 6.58 11 14.1 19.74 10.81 24.53 4.39 35.08a144.77 144.77 0 0 1-13.83 19.19c1.7-.85 3.38-1.73 5-2.68C575.72 103 590.39 87 601.2 91.82c2.2 1 7.27 6.56 7.77 8.27 5.7 5.35 12.11 8 19.2 11.62-1.07-.54-1.7-.86 0 0 4.99 2.54 3.66 8.77-1.17 10.79zm-445.53 43.74c-5.77.15-14.17 3.33-16.93 2.05 3.99 1.84 13.38.07 16.93-2.05zm257.95-14.16c-7.83 6.58-17.16 3.21-27.42 8.15-.62 3.16-3.15 8.26-.82 10.23s13.95-5 16.49-6c12.64-5 25.41-9.38 37.8-14.65 1.19-1.7 2.28-3.3 3.27-4.77-9.87 2.43-20.18 4.87-29.32 7.04zM208.29 223.5a33.91 33.91 0 0 0 6.53-.25c.59-1.09.59-1.09-2.77-2.87a5.48 5.48 0 0 0-3.76 3.12zM175.72 315c-10.34-3.61-21.34-5.27-32.13-7.42-8.77 19-10.19 26.94-11.94 31.55 12.51-2.68 39.61-22.45 44.07-24.13zm70.6-40.48c-3.3.55-23.6 6.23-42.56 6.19s-35.31-.13-39.83-1.06c-2.18-.45-8.11 10.17-10.56 13.26-3.68 4.64 27.27 9.71 33 9.1 10.49-1.1 11.95-.08 19.89-4.88 2.99-1.78 39.11-21.13 40.07-22.59zm.41-15.32c-2.26-1-20.17-14.89-24.11-15.57a12.37 12.37 0 0 1-7-3.27 14.14 14.14 0 0 1-8.06 2.46c2.11 4.54-6.42 6.75-6 2.5.65-6.11-4.29-5.93-10.19-4.57-4.6 1.06-24.79 28.81-21.89 30.87 7.38 3.71 38.3-1.34 45.24-1.2-1.38-4.33 5.48-11.24 9-8.72 1 .73 5.88 6.12 7.37 5.14 6.54-4.28-16.53-13.91-16.65-16.73-.38-8.68 23.91 6.79 23.53 7 1.58 1.52 7.03 3.22 8.77 2.11zm71.12-49.2c-18.55 5.09-36.4 12.6-50.5 25-3.91.68-7.53-1.29-11.43-1-.07 3.65-3.46 5.88-6.13 8.07-3 2.45-6.38 2.86-8.66-.67a13.61 13.61 0 0 0 3.78-5.84c-4.85 1.55-10.16 2.7-14.08 6 3.12.08 24.13 9.75 28.59 13.26 9 7.1 32.07-13.16 39.86-19.6s17.28-14.73 18.57-25.22zm-6.94-11.56h-.5c2.33 6.41 9.86.09.5.05zM337.07 178c-13.31.08-34.74 2.49-48.81 2.63-22.11.2-26.38 1.06-37.15.86 0 0-20.79 32.91-24.15 47.33 10.52-3.73 20-.52 29.69-6.41-2.9-.11-5-1.69-4.66-3.76.38-2.47 4.83-1 6.41-.76 4.5.75 8.75.72 15.08-3.6-2.54-.85-11.37-3.14-8.89-8.12 2.71-5.44 13.55-1.17 19 1.49 6.33 3.1 10.64.89 16.85-1.15-.17-5-5.92-6.3.21-10.65-2.24-.25-6.37-3.85-3.57-4.81s11.51 3.42 17.54 4.16c12.74 1.73 15.51-8.82 16.43-9 2.45-3.44 6.02-8.21 6.02-8.21zm32.51 4.82a91.6 91.6 0 0 0 .15-13.58c-10.14 5.11-24.21 13.7-23 21.45 4.13-2.17 14.04-4.82 22.85-7.86zm17.19 12.91c-4.58 10.28-8.84 21.12-12.19 29.62a25.34 25.34 0 0 0 8-9.2c.6-3.48 2.69-13.9 4.19-20.4zm16.76 81.83c-3.81-3.19-8.45-5.35-12.55-8.18 1.38 4.34-.86 7.11-4 10.51 5.63.43 11.18-.98 16.55-2.31zm160.59-149.49c-9.31-.07-22.42 6.61-31.26 9.37q-16.34 5.09-32.6 10.35c-8 13.43-22.94 37.67-27 38.12-5.61.62-14.51 6.15-5-6.67 1.86-2.51-9.54 12.82-16.43 14.08s-12.11 17.62-21.5 15.11c-5.45-1.43 10.67-24.33 24.9-44.16-11.9 4.89-23.68 10-35.42 15.11-4.36 1.88-17.69 7.44-17.92 12.09s1.8 6.86.18 11.26a21.35 21.35 0 0 0-.64 10.65c1.08 6.7 3.31 13.57 11.34 14.51 9.32 1.09 3.61 8.74-2.91 10.27-7.22 1.69-5.18 8.24-6.56 14.36-.65 2.87-3.8 5.12-3.82 8.15 0 4 14.16 11.58 17.69 12.85 5.07 1.82 12.76 5.92 38.65-13.11-2.32-2.62-15.78-3.61-10.89-10.71 2.5-3.63 17.29-4.07 23.67.28 5.1 3.48 45.45-24 65.62-45.62a130.28 130.28 0 0 0 27.53-47c.65-4 10.99-29.23 2.37-29.29z" fill="#fff" data-name="Layer 1"/></g></svg>