<?xml version="1.0" encoding="UTF-8"?><svg xmlns="http://www.w3.org/2000/svg" width="1040.02" height="996.05" viewBox="0 0 1040.02 996.05"><g id="a"/><g id="b"><g id="c"><g id="d"><g><path d="M614.22,110.56c1.39,.54,2.75,1.39,4.17,1.58,12.34,1.69,12.77,1.41,18.71-10.84,6.45,3.6,12.97,7.14,19.39,10.9,1.78,1.04,2.95,3.16,2.69,5.27-.31,2.49-2.55,2.69-4.48,2.79-3.5,.17-6.82-.56-9.41-3.6-3.31-3.89-7-3.33-10.69-1.67-8.55,3.83-9.17,7.15-3.31,19.37,3.65-2.18,7.27-4.35,10.97-6.56,3.44,3.76-2.08,8.08,1.96,11.47,3.9,3.26,7.24,1.33,10.94,.33,2.72-.74,5.7-.56,8.57-.76,9.01-.6,9.89-2.44,5.15-11.09-.7-1.28-1.78-2.33-3.05-3.96,4.48,.05,8.21,.15,11.87,2.11,8.79,4.7,9.84,8.17,2.61,14.13-4.97,4.09-6.22,7.06-1.16,12.11,2.29,2.28,1.88,4.51,.06,6.73-5.27,6.42-1.16,8.08,4.4,10.4,7.77,3.25,14.8,8.83,22.73,1.06,4.68-4.59,7.2,3.1,10.77,4.94,3.77,1.95,4.97,5.35,2.04,8.84-2.98,3.56-3.61,7.34-.09,10.9,3.5,3.54,5.94-1.82,9.34-1.47,3.51,2.12,1.68,5.47,1.85,8.28,.45,7.14,4.58,9.4,10.01,7.9,6.25-1.72,11.99-2.32,18.12,1.56,3.37,2.13,6.28-.03,9.33-1.72,3.86-2.14,8.35-1.54,12.4,.81,.93,.54,1.39,2.64,1.57,4.05,.08,.65-1.12,2.07-1.61,1.98-5.79-1.09-9.47,3.08-14.09,5.02-3.64,1.53-7.11-2.24-10.51-4.53-2.63-1.77-5.88-.97-7.45,2.16-1.69,3.38-.09,5.1,3.1,7.14,8.34,5.31,13.14,14.44,18.17,22.7,4.68,7.67,12.35,8.08,18.26,12.46,.99,.74,3.62-.59,5.16-1.53,1.13-.69,1.54-3.14,2.61-3.35,5.67-1.11,10.34-9.97,15.31-5.88,6.53,5.38-1.5,11.53-3.69,15.44-4.35,7.76-3.04,14.25,2.36,18.99,4.28,3.76,3.82,16.71,14.44,10.56,1.21-.7,1.42,2.36,.71,3.4-3.44,5.04,.29,7.81,2.92,11.87,4.45,6.86,12.44,8.77,16.69,15.71,2,3.25,5.04,2.45,7.32-.13,1.71-1.93,3.75-3.46,5.75-.21,1.27,2.06,.34,4.04-1.6,5-6.7,3.33-4.17,8.23-.48,12.27,3.71,4.05,7.66,11.59,13.71,3.89,2.35-2.99,4.67-1.67,5.6,.71,4.1,10.55,13.27,17.45,17.08,29.01,3.06,9.29,10.8,18.25,16.74,27.16,6.6,9.88,12.89,19.98,19.35,29.96,2.9,4.47,6.78,7.76,11.39,10,2.36,1.14,3.79,2.22,4.15,5.51,1.32,11.85,6.52,21.97,14.9,30.72,3.47,3.62,4.73,9.01,6.89,13.51,9.93,20.62,18.94,41.63,28.28,62.46l-.03-.35c4.5,17.67,8.48,35.53,13.56,52.9,5.51,18.82,8.42,38.36,16.94,56.39,1.41,2.99,1.24,5.6,1.28,8.61,.07,6.31-.22,13.01,3.14,18.86,3.31,5.75,1.61,9.12-2.25,12.76-2.38,2.25-8,5.91,1.5,7.47,1.42,.23,.5,3.55,.36,5.46-.32,4.39-.53,8.79-.79,13.17-1.02-2.9-2.25-6.11-5.75-5.55-2.55,.41-3.4,3.24-2.58,5.76,2.02,6.27-2.35,12.39,1.32,18.61-9.13,11.2-6.13,26.97-11.34,39.74-3.51,8.59-4.16,18.51-9.75,26.27-1.27,1.76-1.82,4.58-1.63,6.91,1,12.36-7.76,20.08-11.54,30.13-.59,1.57-2.65,3.74-3.89,3.55-9.01-1.37-11.45,6.78-16.18,11.04-5.06,4.56-13.31,3.55-16.83,10.33-1.26,2.43-4.12,3.9-5.43,6.3-3.43,6.26-8,8.91-15.38,5.72-1.75-.76-3.89-1.27-5.65-.99-4.66,.73-7.04,3.31-2.98,7.8,2.2,2.43,4.55,4.23,2.25,7.33-2.1,2.82-3.87,.81-5.83-.97-2.05-1.87-4.06-.77-4.05,1.35,.05,10.91-8.01,16.71-15.02,20.8-8.85,5.17-17.29,11.48-27.22,14.92-2.97,1.03-5.61,3.33-9.51,1.51-4.94-2.3-8.38,0-10.58,4.25-2.71,5.23-6.89,5.55-10.19,.92-4.86-6.82-9.05-6.25-13.13-1.17-6.34-3.18,1.82-7.47-3.44-10.96-5.9,5.9-9.7,16.44-21.59,11.48-1.84,6.4,4.66,7.95,5.33,12.41,.45,2.99,2.1,5.77-1.27,7.45-2.35,1.18-4.77,.52-6.38-1.9-1.99-2.98-4.17-6.82-7.81-5.92-5.46,1.36-10.68,3.8-15.62,6.46-2.57,1.38-1.53,4.14,.56,6.09,1.77,1.65,4.47,2.32,5.11,5.12-8.55,4.68-8.76,4.75-12.11-3.92-1.32-3.43-3.44-5.2-6.49-4.7-9.81,1.62-18.5,6.72-29.21,6.19-5.54-.27-5.5,4.79,.12,15.26l-.06-.35c-5.8-1.58-10.71-10.15-17.62-3.27-.97,.96-2.92,1.3-3.32,2.39-1.03,2.86,.74,7.76-4.4,7.48-4.68-.25-9.34,1.86-14.19-1.28-3.03-1.96-8.34-10.69-9.49,1.07-2.75-.72-5.62-1.13-8.23-2.24-4.26-1.81,.08-3.82-.23-5.6-.73-4.23-2.22-8.36-3.29-12.55-.72-2.85-.91-6.64-4.59-6.63-3.98,0-8.85,2.51-7.64,6.62,3.42,11.6-3.77,6.75-8.31,5.77-1.78-.39-3.37-1.93-4.87-2.84-.03-1.25-.39-2.6-.01-2.85,3.12-2.05,7.84-3.73,5.11-8.55-2.28-4.02-7.25-5.19-11.63-4.74-4.33,.45-7.06,3.65-6.33,8.06,.81,4.89,2.97,9.7-3.66,11.75-2.76-3.05,1.66-5.32,.25-8.07-2.1-4.11,2.55-11.63-6.85-12.13-8.8-.47-10.44,.5-12.24,9.63-.37,1.85-.04,3.93-2.8,6.08-8.25-5.66-17.84-9.45-28.38-9.98-1.57-.08-3.83-1.87-4.56-3.4-2.21-4.64-1.96-9.45-8.48-2.21-3.57,3.96-2.21-5.26-5.24-8.38-4.84,1.42-10.18,2.93-15.48,4.55-17.77,5.45-24.91,3.68-34.59-17.98-2.03-4.55-4.7-10.32-7.94-8.56-8.2,4.47-10.55-2.76-15.39-5.68-8.58-5.16-16.82-12.79-27.93-8.11l.4-.03c-9.5-9.92-21.28-15.82-33.89-19.98-3.85-1.27-6.63,.92-6.75,5.29-.12,4.41-1.93,6.79-6.32,4.77-3.05-1.4-6.92-3.86-3.48-7.81,4.4-5.07,1.18-7.13-3.04-8.15-5.96-1.43-10.04-8.52-16.64-6.89-3.24,5.08,4.79,6.51,2.28,11.39-11.87-2.15-19.98-11.64-29.97-17.34-3.74-2.13-6.87-5.16-11.33-6.36-8.68-2.32-14.35-7.96-15.41-17.39-.53-4.71-2.58-5.44-6.95-4.59-5.13,.99-7.7-1.41-7.94-7.52-.43-10.89-1.68-11.25-10.6-5.09-3.66,2.53-8.68,.03-7.35-4.2,2.29-7.31,2.53-12.48-5.98-14.63-5.13-1.29-10.29-7.54-14.4,1.62-2.94-5.42-.34-7.89-.15-10.74,.2-3.05,.66-5.76-3.25-7.15-6.36-2.25-10.6-6.96-13.4-13.22-.78-1.73-2.09-3.87-3.64-4.51-19.78-8.15-31.99-25.33-46-40.39-3.97-4.27-7.73-8.08-13.72-10.55-10.88-4.49-21.19-11.35-19.62-26.46,.33-3.19-.73-5.95-2.97-8.21-1.67-1.69-3.1-4.68-5.79-3.55-4.07,1.71,.88,5.45-2.04,9.37-9.19-18.17-24.49-31.36-31.28-50.51-.82-2.31-2.37-6.15-3.66-6.2-12.66-.52-14.35-12.59-19.51-20.22-21.28-31.5-39.2-65.15-55-100.08-4.53-10.03-12.55-18.32-13.85-30.02,2.31-2,6.73-2.07,5.8-6.93-.15-.81-1.23-2.12-1.74-2.06-5.09,.59-1.92,5.51-3.59,7.97-.26,.38-.3,.92-.44,1.39-13.16-18.95-19.42-41.02-26.02-63-.98-3.26-.4-4.66,2.34-5.83,4.14-1.76,4.38-5.3,2.68-8.86-1.39-2.92-4.16-5-7.17-2.93-4.02,2.76-5.68-.11-6.42-2.95-4.12-15.74-12.65-30.09-13.53-46.88l-.34,.04c6.63-3.58,4.7-10.07,3.23-14.98-5.03-16.78-4.88-33.58-2.59-50.72,1.1-8.21,.05-16.78-.92-24.77-2.67-22.17,1.58-41.54,11.89-61.05,6.42-12.16,13.01-24.31,19.43-36.53,2.4-4.58,5.22-8.8,9.09-12.12,6.29-5.39,8.76-11.9,9.56-21.08,1.08-12.47,8.24-23.42,15.26-33.24,5.2-7.28,10.62-14.7,17.98-20.26,5.42-4.1,9.38-10.5,13.84-16.01,5.13-6.34,10.38-12.41,17.69-15.99,2.14-1.05,4.66-2.56,5.7-4.64,5.92-11.77,17.32-14.88,27.3-19.38,14.7-6.62,29.97-12.02,45.38-16.43,8.97-2.56,16-9.28,25.61-10.44C252.63,6.39,285.47,.53,319.01,.04c38.98-.45,77.71,2.71,116.31,9.94,4.22,.8,8.36,2.3,12.08,3.35,1.8,6.45-4.73,6.66-5.16,11.7,6.54,6.84,13.21,13.58,23.25,6.79,.19-5.03-3.73-5.63-6.65-7.15-2.62-1.36-3.8-3.7-3.36-6.39,.61-3.68,3.68-2.71,5.88-2.21,3.81,.87,7.57,2.18,11.3,3.51,21.21,7.57,42.41,15.2,63.57,22.95,2.29,.84,4.58,2.12,5.31,5.37-2.73,4.25-8.16,1.67-11.45,4.52-1.69-3.19-3.41-7.03-7.22-3.26-1.86,1.84-1.81,4.73,.79,6.43,3.82,2.49,6.22,1.51,6.37-3.57,4,2.94,8.09,5.74,11.98,8.87,3.21,2.58,6.46,5.49,10.25,2.69,3.69-2.72-2.83-6.63,.31-10.21,6.06-.08,11.81,2.58,17.42,5.74,1.32,.74,2.38,2.06,2.14,3.83-.35,2.57-2.09,3.12-4.15,2.55-1.86-.51-3.65-1.79-5.49-1.93-1.93-.14-3.66,1.14-4.56,3.07-1.18,2.53-.82,5.24,1.11,7.18,1.74,1.75,3.95,3.04,6.09,4.24,13.98,7.84,28.03,15.53,41.97,23.49,3.48,1.99,6.66,4.69,7.2,9.42-2.98-3.48-5.77-7.79-10.65-3.9-.43,.35-.52,2.11-.13,2.56,2.9,3.29,6.17,1.31,9.32,1.01,.47-.04,.94-.04,1.42-.06Zm259.82,812.66c.81,.52,1.58,1.32,2.44,1.51,2.02,.45,3.89,.02,4.56-2.11,.21-.67-.15-2.03-.7-2.46-2.03-1.6-3.55-.25-4.86,1.05-.63,.63-.93,1.58-1.38,2.39-3.33,.26-6.84,.26-6.35,5.78,2.1-2.06,4.19-4.11,6.29-6.17ZM509.03,42.37c-5.6-4.52-14.08-8.06-23.28-9.14-1.08-.13-2.62,1.13-3.31,2.23-.82,1.3-.33,3.18,1.11,3.96,8.22,4.45,16.01,10.19,25.27,11.69,1.83,.3,4.1,.16,4.79-2.25,.66-2.29-.81-3.83-4.58-6.49Zm63.17,719.07c4.52-6.29,12.92-5.89,10.76-13.24-1.01-3.44-7.69-3.94-10.11-2.9-6.64,2.85-.44,8.33-.65,16.14Zm-40.28-6.45c10.13,1.19,17.36,3.81,26.32-.71-9.18-5.33-16.3-7.27-26.32,.71Zm105.94-610.21c-2.23-2-5.25-2.2-7.41-.12-2.65,2.55,.37,4.51,2.01,6.04,2.4,2.23,5.19,3.17,7.17-.19,1.13-1.91,.13-3.85-1.76-5.73Zm-52.22,615.94c2.26,2.12,4.23,1.13,6.1-.35,1.55-1.23,2.58-3.1,1.26-4.8-2.29-2.97-4.97-2.12-7.09,.11-1.3,1.37-1.85,3.18-.28,5.05Zm17.03-645.99c-5.58,4.17-9.9,5.63-9.76,10.88,.05,1.85,2.81,2.89,4.71,2.69,6.72-.7,3.59-6.55,5.06-13.57Zm-221.94,758.88c-1.86-1.27-4.32-3.01-6.08-.47-1.54,2.22,.14,4.84,1.94,6.54,1.89,1.79,4.77,2.71,6.42,.5,1.68-2.25-.38-4.54-2.27-6.58Zm-26.04-11c3.87,5.71,6.12,10.36,13.61,8.29-3.11-5.33-6.55-7.96-13.61-8.29Zm-156.2-134.62q-1.96-7.59-8.86-9.81,3.1,5.99,8.86,9.81ZM391.29,19.03c-1.63-1.15-3.42-1.96-4.98-.38-1.43,1.45-1.8,3.45-.14,5.14,1.49,1.52,3.34,1.77,4.88,.25,1.45-1.42,2.04-3.16,.24-5.01Zm91.1,24.76c-1.76-.75-3.98-2.74-5.78,.27-.79,1.31-.32,3,.85,4.01,2.16,1.85,4.49,1.76,6.26-.29,1.1-1.27,.15-2.69-1.33-3.98Zm504.47,788.69c-.64,1.23-1.37,2.58,.18,3.69,.4,.29,1.94-.29,2.2-.86,.52-1.16,1.16-3.13,.59-3.82-1.21-1.48-2.12,.17-2.97,.99Zm-265.77,130.2c-3.14-1.43-4.3-.78-4.97,.53-.69,1.35-.42,2.93,1.02,3.63,1.44,.7,2.68-.24,3.4-1.47,.77-1.33,.65-2.63,.55-2.68Zm-196.28-16.5c-1.37,1.32-1.25,2.66-.07,3.61,.5,.41,1.78,.22,2.48-.13,1.21-.6,2.07-1.8,.94-3.11-.98-1.14-2.38-.93-3.35-.37Zm36.48-206.24c-1.58-1.35-3.07-2.16-3.78-.56-.42,.94,.12,2.83,.86,3.77,.88,1.12,2.8,1.32,3.5,.03,.45-.82-.41-2.43-.59-3.24Zm-33.2-16.27c-.96-.74-2.05-.75-2.29,.26-.14,.6,.62,1.85,1.27,2.19,.69,.37,1.71,.01,2.59-.03-.52-.81-1.05-1.62-1.58-2.43ZM218.05,33.7c.07,.43,0,1.06,.23,1.26,.87,.74,1.69,.51,2.15-.6,.14-.33-.09-.84-.15-1.27-.75,.2-1.49,.4-2.24,.61Z" fill="#fcfcfc"/><path d="M623.55,96.14c-7.95-2.74-11.72-7.87-17.35-7.88-4.2,0-6.23-4.73-9.13-7.46-1.17-1.1-1.42-2.73-.63-3.99,.8-1.28,2.48-1.83,3.6-.71,6.67,6.66,16.75,8.23,23.52,20.04Z" fill="#fcfcfc"/><path d="M800.49,238.88c-1.42-.11-2.43,.13-3.14-.29-4.58-2.7-9.1-7.72-7.86-11.79,1.75-5.73,4.32-.62,6.11,2.38,1.02,1.72,2.44,3.22,3.67,4.82,.93,1.21,2.03,2.36,1.22,4.89Z" fill="#fcfcfc"/><path d="M741.27,182.69c-4.74-5.23-9.67-6.41-14.65-9.54q11.25-2.65,14.65,9.54Z" fill="#fcfcfc"/><path d="M465.43,863.22c3.63,1.59,4.93,2.18,6.23,2.74,2.84,1.21,5.33,2.74,4.77,6.27-.11,.71-.92,1.72-1.51,1.73-3.25,.04-5.07-2.25-6.53-4.92-.67-1.23-1.28-2.5-2.96-5.82Z" fill="#fcfcfc"/><path d="M1031.67,735.94c1.73-6.07,3.37-12.19,6.58-17.5,3.06,11.83,2.92,12.21-6.58,17.5Z" fill="#fcfcfc"/><path d="M999.14,549.28c11.36,3.01,11.63,3.36,11.16,18.26-2.68-9.33-6.53-14.25-11.2-18.59,0-.01,.04,.32,.04,.32Z" fill="#fcfcfc"/><path d="M996.32,846.38c1.58,2.53,1.05,4.58-.78,6-1.67,1.29-3.97,2.59-6.06,.61-2.52-2.39-.49-4.14,1.09-5.57,1.54-1.39,3.09-2.99,5.75-1.04Z" fill="#fcfcfc"/><path d="M494.53,877.33c.66-.62,1.31-1.25,1.97-1.87l-.38,.02c3.7,4.56,11.9,3.36,14.34,12.05-7.52-1.65-11.59-6.42-16.01-10.55l.09,.35Z" fill="#fcfcfc"/><path d="M726.32,162.93c-3.3,.42-4.59,.76-5.93,.71-2.69-.1-6.3,.22-5.3-4.45,.71-3.31,3.62-1.7,5.78-.56,1.24,.66,2.3,1.78,5.44,4.3Z" fill="#fcfcfc"/><path d="M590.5,69.12c-.09,.53-.02,2.03-.56,3.14-1.76,3.62-4.44,1.09-6.74-.13-1.29-.68-2.22-2.39-1.31-3.53,1.9-2.38,4.54-1.81,8.61,.51Z" fill="#fcfcfc"/><path d="M831.83,265.75c1.69,2.13,2.33,4.51,1.01,6.63-.86,1.38-2.42,.66-3.46-.58-1.4-1.68-2.11-3.7-1.18-5.49,.65-1.25,2.01-1.64,3.63-.57Z" fill="#fcfcfc"/><path d="M808.6,955.22c-2.39,3.11-3.91,5.19-7.07,4.52-.53-.11-1.51-1.69-1.34-2.13,1.13-2.99,4.08-2.43,8.41-2.4Z" fill="#fcfcfc"/><path d="M692.09,157.73c1.45-1.28,3.23-1.65,5.1-.62,1.51,.83,2.13,2.51,.94,3.65-1.3,1.25-3.26,1.78-5.11,.78-1.44-.78-1.78-2.37-.93-3.8Z" fill="#fcfcfc"/><path d="M762.78,954.25c.4-1.28,.75-2.59,1.22-3.83,.66-1.76,1.52-3.32,4.02-1.9,.39,.22,.8,.67,.96,1.08,.92,2.31-.18,3.42-2.18,3.8-1.33,.26-2.73,.32-4.1,.49,0,.02,.07,.36,.07,.36Z" fill="#fcfcfc"/><path d="M494.44,876.98c-.18,.41-.25,.92-.55,1.2-1.64,1.49,.51,6.27-4.13,5.02-.7-.19-1.7-1.41-1.77-2.14-.5-5.3,3.47-3.84,6.54-3.71,0,0-.09-.36-.09-.36Z" fill="#fcfcfc"/><path d="M30.91,332.99c-2.81-2.45-3.14-5.68-3.24-9.03,3.63,2.33,3.75,5.57,2.91,9.06l.33-.03Z" fill="#fcfcfc"/><path d="M849.38,286.66c.09,1.12,.42,2.35,.16,2.48-.98,.46-2.15,.56-3.26,.8-.09-.78-.5-2.06-.21-2.24,.92-.56,2.11-.71,3.31-1.04Z" fill="#fcfcfc"/><path d="M914.03,383.07c.61-.02,1.34-.05,2.08-.08,0,1.29,.25,2.69-.07,3.84-.27,1-1.43,1.01-2.07,.09-.91-1.3-.9-2.68,.05-3.86Z" fill="#fcfcfc"/><path d="M854.31,927.45c-.17-.36-.51-1.02-.47-1.04,.61-.29,1.27-.51,1.91-.74,.17,.37,.35,.74,.52,1.12-.65,.22-1.31,.44-1.96,.66Z" fill="#fcfcfc"/><path d="M698.38,144.15c-.23,.79-.24,1.98-.77,2.26-.52,.27-1.55-.39-2.35-.64,.21-.79,.19-2.04,.68-2.24,.6-.25,1.61,.38,2.44,.63Z" fill="#fcfcfc"/></g></g></g></g></svg>