<?xml version="1.0" encoding="UTF-8"?><svg xmlns="http://www.w3.org/2000/svg" width="1080" height="959.38" viewBox="0 0 1080 959.38"><g id="a"/><g id="b"><g id="c"><g id="d"><g><path d="M484.31,85.5c3.11,.59,6.17,2.88,9.37-.12,.44-.41,.52-2.17,.12-2.56-4.49-4.33-7.67-.31-10.97,2.87,.99-4.66,4.41-7.05,8.07-8.69,14.63-6.58,29.36-12.89,44.02-19.37,2.24-.99,4.56-2.06,6.46-3.64,2.1-1.75,2.72-4.41,1.79-7.04-.71-2.01-2.31-3.45-4.25-3.5-1.84-.04-3.75,1.06-5.65,1.39-2.11,.36-3.79-.34-3.89-2.94-.07-1.78,1.11-2.99,2.49-3.6,5.88-2.6,11.86-4.71,17.88-4.04,2.78,3.87-4.08,7.13-.67,10.19,3.5,3.14,7.02,.56,10.46-1.7,4.16-2.74,8.5-5.14,12.77-7.68-.35,5.07,1.95,6.27,5.99,4.16,2.75-1.44,3.07-4.32,1.4-6.32-3.43-4.12-5.51-.45-7.5,2.56-3.01-3.16-8.66-1.11-10.97-5.6,1.04-3.17,3.45-4.22,5.8-4.84,21.81-5.69,43.64-11.26,65.48-16.76,3.84-.96,7.7-1.9,11.58-2.41,2.23-.29,5.39-.96,5.64,2.76,.18,2.72-1.21,4.93-3.96,6.04-3.05,1.23-7.01,1.46-7.3,6.48,9.34,7.72,16.62,1.65,23.79-4.53,.05-5.06-6.43-5.89-4.02-12.14,3.8-.69,8.06-1.79,12.34-2.18,39.12-3.51,77.97-2.95,116.73,1.23,33.34,3.7,65.46,12.66,98.07,19.76,9.45,2.07,15.81,9.44,24.5,12.84,14.92,5.86,29.6,12.7,43.6,20.69,9.5,5.43,20.56,9.62,25.32,21.91,.84,2.17,3.2,3.91,5.23,5.16,6.93,4.26,11.58,10.81,16.08,17.6,3.92,5.91,7.24,12.66,12.25,17.26,6.79,6.25,11.48,14.15,15.96,21.89,6.04,10.45,12.12,22.03,12.01,34.55-.09,9.22,1.76,15.94,7.5,21.9,3.54,3.68,5.93,8.14,7.89,12.93,5.21,12.78,10.61,25.5,15.84,38.22,8.4,20.41,10.77,40.1,5.99,61.91-1.72,7.86-3.59,16.29-3.28,24.57,.64,17.28-.82,34.02-7.43,50.24-1.94,4.75-4.48,11.02,1.78,15.22l-.33-.08c-2.49,16.63-12.35,30.1-17.95,45.37-1.01,2.75-2.93,5.46-6.67,2.32-2.81-2.35-5.76-.54-7.42,2.23-2.04,3.38-2.13,6.93,1.82,9.08,2.62,1.43,3.06,2.87,1.77,6.02-8.68,21.25-17.01,42.62-31.93,60.22-.1-.48-.09-1.02-.31-1.42-1.43-2.61,2.2-7.2-2.81-8.27-.51-.11-1.7,1.09-1.93,1.88-1.39,4.75,3,5.24,5.11,7.45-2.42,11.52-11.19,19-16.66,28.56-19.06,33.26-40.12,65.04-64.32,94.36-5.87,7.1-8.7,18.95-21.35,18.26-1.29-.07-3.2,3.6-4.24,5.82-8.59,18.42-25.08,30.08-35.97,47.29-2.54-4.18,2.76-7.43-1.14-9.53-2.57-1.38-4.28,1.45-6.1,2.98-2.44,2.04-3.76,4.68-3.74,7.89,.12,15.19-10.8,21.03-22.06,24.46-6.2,1.89-10.31,5.32-14.67,9.19-15.39,13.64-29.19,29.58-49.66,35.8-1.61,.49-3.12,2.49-4.06,4.14-3.39,5.96-8.06,10.25-14.6,11.88-4.02,1-3.83,3.75-3.92,6.8-.08,2.85,2.27,5.55-1.18,10.67-3.22-9.52-8.95-3.79-14.18-2.99-8.67,1.32-8.93,6.5-7.35,13.99,.92,4.33-4.32,6.34-7.72,3.47-8.29-6.99-9.57-6.75-11.04,4.05-.83,6.06-3.61,8.2-8.62,6.72-4.26-1.26-6.37-.73-7.36,3.91-1.97,9.29-8.14,14.35-17.01,15.84-4.55,.76-7.96,3.48-11.89,5.24-10.48,4.71-19.46,13.38-31.49,14.39-2.03-5.1,6.1-5.75,3.35-11.12-6.42-2.25-11.15,4.41-17.22,5.27-4.3,.61-7.7,2.36-3.8,7.82,3.04,4.26-1.04,6.34-4.22,7.44-4.56,1.59-6.13-.95-5.83-5.35,.3-4.36-2.25-6.81-6.21-5.91-12.94,2.94-25.24,7.68-35.64,16.65l.39,.07c-10.61-5.72-19.54,1.08-28.58,5.4-5.1,2.44-8.13,9.41-15.86,4.18-3.06-2.07-6.27,3.43-8.72,7.76-11.71,20.63-18.98,21.72-36.15,14.59-5.12-2.12-10.29-4.13-14.97-6.01-3.31,2.82-2.84,12.13-6.01,7.84-5.8-7.83-6.01-3.02-8.65,1.39-.88,1.46-3.3,3.03-4.87,2.95-10.54-.49-20.45,2.37-29.21,7.22-2.54-2.41-2.02-4.44-2.2-6.32-.92-9.26-2.46-10.38-11.26-10.76-9.4-.39-5.49,7.53-7.97,11.42-1.67,2.61,2.53,5.29-.52,8.06-6.41-2.68-3.8-7.26-2.52-12.05,1.15-4.32-1.26-7.77-5.53-8.63-4.32-.87-9.38-.18-12.03,3.6-3.18,4.53,1.36,6.66,4.26,9,.35,.28-.14,1.59-.29,2.84-1.58,.76-3.31,2.15-5.12,2.36-4.62,.54-12.24,4.68-7.72-6.54,1.6-3.98-3.01-6.94-6.97-7.33-3.67-.36-4.21,3.4-5.21,6.16-1.46,4.07-3.34,8.04-4.47,12.18-.48,1.74,3.65,4.16-.76,5.55-2.7,.85-5.6,.99-8.41,1.44-.02-11.82-6.14-3.64-9.34-1.98-5.13,2.66-9.56,.12-14.25-.08-5.15-.22-2.91-4.92-3.67-7.87-.29-1.12-2.2-1.65-3.07-2.7-6.22-7.51-11.92,.55-17.85,1.57l-.09,.34c6.6-9.88,7.13-14.92,1.58-15.18-10.72-.5-18.88-6.41-28.49-8.96-2.99-.79-5.27,.77-6.91,4.05-4.16,8.3-4.36,8.21-12.43,2.74,.9-2.73,3.65-3.14,5.57-4.61,2.27-1.74,3.57-4.38,1.14-6.01-4.66-3.12-9.62-6.05-14.93-7.93-3.54-1.25-6.08,2.37-8.34,5.14-1.83,2.25-4.3,2.67-6.53,1.28-3.2-2-1.28-4.61-.55-7.54,1.1-4.37,7.72-5.3,6.49-11.85-12.31,3.81-15.08-7.05-20.39-13.49-5.57,2.97,2.15,8.01-4.47,10.58-3.57-5.44-7.69-6.41-13.18-.09-3.72,4.29-7.86,3.57-10.05-1.89-1.78-4.44-4.99-7.07-10.13-5.25-4.06,1.44-6.46-1.1-9.32-2.41-9.55-4.37-17.35-11.46-25.67-17.45-6.59-4.75-14.05-11.29-12.96-22.15,.21-2.11-1.69-3.39-3.9-1.73-2.12,1.59-4.08,3.41-5.9,.41-2-3.31,.52-4.88,2.94-7.09,4.47-4.08,2.35-6.88-2.22-8.05-1.73-.44-3.91-.14-5.72,.44-7.65,2.47-11.95-.6-14.76-7.16-1.08-2.52-3.78-4.26-4.81-6.8-2.86-7.08-11.16-6.87-15.76-11.89-4.3-4.69-5.95-13.04-15.05-12.54-1.25,.07-3.09-2.28-3.53-3.91-2.8-10.37-10.78-18.88-8.6-31.09,.41-2.3,.14-5.16-.96-7.03-4.83-8.26-4.53-18.19-7.2-27.08-3.97-13.21,.52-28.62-7.49-40.64,4.24-5.84,.48-12.35,3.09-18.4,1.05-2.43,.48-5.33-2.02-5.98-3.43-.89-4.96,2.19-6.25,4.98,.16-4.39,.37-8.79,.48-13.19,.05-1.91-.55-5.31,.88-5.4,9.6-.64,4.36-4.83,2.21-7.29-3.49-3.99-4.86-7.51-1.02-12.91,3.91-5.5,4.25-12.19,4.93-18.47,.32-2.99,.4-5.61,2.09-8.45,10.2-17.13,14.97-36.31,22.25-54.51,6.72-16.81,12.39-34.2,18.56-51.36l-.07,.35c11.29-19.84,22.27-39.9,34.13-59.47,2.59-4.27,4.35-9.52,8.15-12.79,9.19-7.91,15.33-17.49,17.78-29.16,.68-3.24,2.2-4.17,4.66-5.08,4.8-1.79,8.98-4.69,12.29-8.86,7.38-9.31,14.61-18.76,22.12-27.97,6.77-8.3,15.32-16.47,19.26-25.43,4.89-11.14,14.68-17.14,19.77-27.24,1.15-2.29,3.6-3.37,5.64-.17,5.28,8.25,9.94,1.12,14.02-2.56,4.06-3.66,7.05-8.3,.69-12.26-1.84-1.14-2.57-3.2-1.12-5.13,2.3-3.05,4.19-1.33,5.7,.76,2.02,2.79,4.98,3.88,7.28,.83,4.9-6.5,13.03-7.64,18.12-14.04,3.01-3.79,6.99-6.19,4.04-11.53-.61-1.1-.1-4.13,1.04-3.31,9.99,7.13,10.77-5.8,15.39-9.13,5.82-4.21,7.76-10.54,4.16-18.68-1.81-4.1-9.22-10.99-2.2-15.72,5.34-3.59,9.13,5.68,14.67,7.32,1.04,.31,1.22,2.79,2.28,3.58,1.45,1.08,3.94,2.65,4.99,2.01,6.3-3.79,13.98-3.47,19.37-10.66,5.8-7.74,11.45-16.36,20.26-20.85,3.37-1.72,5.13-3.28,3.77-6.81-1.26-3.26-4.42-4.37-7.21-2.86-3.61,1.95-7.42,5.38-10.9,3.5-4.41-2.37-7.67-6.88-13.54-6.34-.5,.05-1.56-1.49-1.42-2.13,.31-1.39,.97-3.43,1.95-3.88,4.26-1.95,8.78-2.12,12.42,.38,2.88,1.97,5.56,4.41,9.12,2.61,6.48-3.28,12.13-2.13,18.19,.18,5.26,2.01,9.59,.16,10.72-6.9,.44-2.78-1.07-6.28,2.64-8.06,3.41-.02,5.33,5.54,9.15,2.35,3.85-3.2,3.58-7.03,.95-10.85-2.58-3.76-1.06-7.03,2.88-8.61,3.73-1.5,6.97-8.91,11.19-3.89,7.15,8.5,14.68,3.61,22.72,1.12,5.75-1.78,10-3.04,5.37-9.93-1.6-2.38-1.79-4.64,.71-6.69,5.53-4.54,4.56-7.62,0-12.17-6.64-6.62-5.26-9.98,3.94-13.81,3.83-1.6,7.55-1.34,12.02-.96-1.43,1.51-2.6,2.45-3.42,3.65-5.55,8.16-4.84,10.08,4.07,11.53,2.84,.46,5.82,.58,8.46,1.57,3.58,1.35,6.73,3.59,10.92,.72,4.35-2.98-.73-7.81,3.05-11.23,3.47,2.55,6.87,5.05,10.29,7.58,7-11.6,6.7-14.96-1.44-19.6-3.52-2-7.14-2.92-10.81,.64-2.87,2.78-6.24,3.18-9.71,2.68-1.91-.28-4.12-.7-4.2-3.2-.06-2.13,1.31-4.13,3.18-4.99,6.75-3.13,13.58-6.03,20.34-9,4.74,12.76,5.14,13.08,17.59,12.58,1.42-.06,2.86-.77,4.3-1.18,.47,.06,.94,.11,1.4,.19ZM152.2,876.13c1.01-5.45-2.49-5.79-5.77-6.37-.37-.85-.58-1.83-1.14-2.51-1.18-1.43-2.56-2.91-4.73-1.51-.59,.38-1.08,1.69-.94,2.38,.47,2.19,2.29,2.79,4.34,2.54,.87-.11,1.72-.83,2.57-1.27,1.89,2.25,3.78,4.49,5.67,6.74ZM588.95,33.51c.46,2.47,2.7,2.82,4.56,2.7,9.36-.61,17.66-5.58,26.27-9.22,1.51-.64,2.17-2.46,1.48-3.83-.58-1.16-1.99-2.56-3.08-2.53-9.26,.19-18.04,2.9-24.05,6.87-4.01,2.29-5.61,3.67-5.18,6.02Zm-125.6,687.58c-2.31-1.26-9.01-1.41-10.34,1.92-2.86,7.11,5.54,7.52,9.44,14.21,.55-7.8,7.24-12.65,.9-16.13Zm13.68,10.33c8.49,5.36,15.93,3.45,26.13,3.23-9.21-8.91-16.49-7.65-26.13-3.23Zm-23.25-608.77c1.65,3.53,4.51,2.87,7.11,.87,1.78-1.37,4.97-3.03,2.58-5.82-1.95-2.27-4.97-2.37-7.39-.59-2.07,1.7-3.24,3.53-2.31,5.54Zm-4.44,607.53c-1.89-2.42-4.48-3.53-7.04-.79-1.47,1.57-.63,3.53,.8,4.9,1.73,1.65,3.59,2.83,6.04,.93,1.74-1.7,1.37-3.57,.21-5.05ZM497.73,104.56c1.87,.38,4.72-.39,4.94-2.23,.64-5.21-3.52-7.07-8.68-11.76,.79,7.13-2.89,12.65,3.74,13.99Zm141.69,768.97c1.43,2.35,4.38,1.71,6.43,.11,1.96-1.52,3.88-3.96,2.56-6.32-1.51-2.7-4.13-1.21-6.1-.12-2.08,1.85-4.35,3.93-2.89,6.33Zm15.53-7.84c7.26,2.78,9.94-1.63,14.34-6.95-7.06-.34-10.73,1.94-14.34,6.95Zm192.46-134.93q-7.08,1.55-9.76,8.92,6.1-3.26,9.76-8.92ZM713.33,20.54c1.39,1.66,3.26,1.59,4.89,.21,1.82-1.53,1.64-3.56,.35-5.13-1.41-1.72-3.26-1.08-5-.09-1.97,1.67-1.55,3.46-.24,5.01Zm-94.51,14.75c1.56,2.22,3.87,2.52,6.2,.89,1.27-.89,1.89-2.52,1.23-3.91-1.5-3.16-3.9-1.39-5.73-.82-1.59,1.15-2.67,2.46-1.7,3.83ZM40.04,767c-.63,.63-.18,2.65,.23,3.86,.2,.6,1.68,1.32,2.1,1.07,1.65-.96,1.05-2.38,.53-3.66-.77-.89-1.51-2.63-2.86-1.27Zm255.25,159.02c.59,1.3,1.74,2.35,3.24,1.79,1.51-.56,1.92-2.1,1.37-3.51-.54-1.37-1.64-2.13-4.9-1-.11,.04-.35,1.33,.29,2.72Zm193.3-.32c-1.25,1.2-.5,2.47,.64,3.19,.66,.41,1.91,.72,2.45,.36,1.27-.83,1.52-2.16,.28-3.6-.91-.64-2.29-.99-3.37,.05Zm-14.1-205.67c.57,1.35,2.5,1.34,3.49,.31,.83-.87,1.55-2.7,1.22-3.67-.55-1.66-2.11-.99-3.82,.2-.25,.79-1.26,2.31-.89,3.17Zm33.7-13.92c.87,.12,1.86,.57,2.58,.28,.68-.28,1.56-1.45,1.47-2.06-.14-1.03-1.22-1.13-2.25-.48-.6,.75-1.2,1.51-1.8,2.27ZM882.45,45.88c-.1,.42-.38,.91-.27,1.25,.36,1.15,1.15,1.46,2.09,.8,.25-.18,.24-.81,.35-1.23-.72-.28-1.44-.55-2.17-.82Z" fill="#fcfcfc"/><path d="M475,70.06c8.18-1.96,12.42-6.71,18.03-6.18,4.18,.4,6.65-4.11,9.8-6.55,1.27-.98,1.68-2.58,1.01-3.91-.68-1.36-2.29-2.06-3.51-1.05-7.27,5.99-17.46,6.59-25.33,17.7Z" fill="#fcfcfc"/><path d="M285.21,195.21c1.43,.03,2.4,.36,3.16,0,4.81-2.25,9.8-6.81,8.95-10.98-1.2-5.87-4.24-1.03-6.31,1.78-1.18,1.61-2.74,2.97-4.12,4.44-1.04,1.11-2.24,2.16-1.69,4.75Z" fill="#fcfcfc"/><path d="M349.53,144.95c5.22-4.75,10.24-5.46,15.5-8.09q-10.94-3.72-15.5,8.09Z" fill="#fcfcfc"/><path d="M559.01,848.75c-3.77,1.24-5.11,1.7-6.47,2.13-2.94,.94-5.57,2.22-5.35,5.78,.04,.71,.75,1.8,1.34,1.86,3.23,.35,5.27-1.76,6.97-4.27,.79-1.16,1.51-2.37,3.51-5.51Z" fill="#fcfcfc"/><path d="M7.54,667.88c-1.14-6.21-2.19-12.46-4.87-18.05-4.18,11.48-4.07,11.87,4.87,18.05Z" fill="#fcfcfc"/><path d="M57.78,485.19c-11.6,1.91-11.9,2.23-12.86,17.11,3.56-9.03,7.86-13.55,12.93-17.43,0-.01-.07,.32-.07,.32Z" fill="#fcfcfc"/><path d="M32.16,781.2c-1.81,2.37-1.49,4.45,.21,6.05,1.54,1.45,3.7,2.96,5.97,1.19,2.73-2.14,.89-4.07-.55-5.64-1.4-1.53-2.79-3.28-5.63-1.59Z" fill="#fcfcfc"/><path d="M528.7,860.01c-.59-.68-1.19-1.37-1.78-2.05l.38,.05c-4.12,4.19-12.17,2.2-15.43,10.63,7.64-.92,12.15-5.28,16.95-8.97l-.12,.34Z" fill="#fcfcfc"/><path d="M366.31,126.71c3.24,.73,4.5,1.19,5.83,1.27,2.68,.16,6.25,.82,5.7-3.92-.39-3.37-3.44-2.04-5.7-1.11-1.29,.54-2.46,1.55-5.83,3.76Z" fill="#fcfcfc"/><path d="M510.48,46.33c.03,.53-.17,2.02,.26,3.18,1.41,3.77,4.32,1.51,6.72,.52,1.35-.56,2.44-2.16,1.64-3.39-1.66-2.55-4.35-2.23-8.62-.31Z" fill="#fcfcfc"/><path d="M251.45,218.97c-1.88,1.96-2.75,4.27-1.64,6.5,.73,1.45,2.34,.89,3.5-.24,1.56-1.53,2.46-3.48,1.7-5.35-.53-1.31-1.84-1.83-3.56-.91Z" fill="#fcfcfc"/><path d="M208.61,907.49c2.08,3.32,3.39,5.54,6.6,5.18,.53-.06,1.67-1.53,1.54-1.99-.84-3.08-3.83-2.81-8.14-3.19Z" fill="#fcfcfc"/><path d="M400.89,124.81c-1.32-1.42-3.06-1.95-5.02-1.11-1.58,.68-2.36,2.29-1.29,3.54,1.18,1.37,3.08,2.08,5.01,1.26,1.5-.64,2-2.19,1.29-3.7Z" fill="#fcfcfc"/><path d="M254.31,910.91c-.28-1.31-.5-2.65-.85-3.93-.49-1.82-1.2-3.45-3.82-2.27-.41,.19-.86,.59-1.06,.98-1.14,2.21-.15,3.42,1.81,3.99,1.3,.38,2.69,.58,4.03,.88,0,.02-.11,.35-.11,.35Z" fill="#fcfcfc"/><path d="M528.82,859.67c.14,.42,.16,.94,.44,1.25,1.49,1.64-1.1,6.19,3.63,5.39,.71-.12,1.82-1.24,1.96-1.96,1.01-5.23-3.09-4.15-6.15-4.32,0,0,.12-.35,.12-.35Z" fill="#fcfcfc"/><path d="M1042.26,362.52c3.03-2.17,3.67-5.35,4.09-8.68-3.84,1.97-4.26,5.18-3.77,8.74l-.32-.06Z" fill="#fcfcfc"/><path d="M231.97,238.1c-.2,1.1-.64,2.3-.39,2.45,.93,.56,2.09,.77,3.16,1.11,.16-.76,.7-2,.42-2.21-.87-.65-2.03-.9-3.19-1.36Z" fill="#fcfcfc"/><path d="M158.4,327.89c-.6-.08-1.33-.18-2.07-.28-.13,1.29-.5,2.65-.3,3.83,.18,1.02,1.33,1.14,2.05,.29,1.03-1.21,1.15-2.58,.32-3.85Z" fill="#fcfcfc"/><path d="M165.77,875.48c.2-.34,.6-.97,.57-.99-.58-.35-1.21-.62-1.83-.92-.21,.35-.42,.71-.62,1.06,.63,.28,1.26,.56,1.89,.84Z" fill="#fcfcfc"/><path d="M395.92,110.69c.16,.81,.05,2,.55,2.32,.49,.32,1.58-.24,2.4-.42-.13-.8,0-2.05-.46-2.3-.57-.3-1.64,.22-2.49,.4Z" fill="#fcfcfc"/></g></g></g></g></svg>