<?xml version="1.0" encoding="UTF-8"?><svg xmlns="http://www.w3.org/2000/svg" width="1080" height="608.11" viewBox="0 0 1080 608.11"><g id="a"/><g id="b"><g id="c"><g id="d"><path d="M1080,216.87c-43.34,5.37-77,42.42-77,87.19s33.66,81.83,77,87.2v188.23h-80.95v28.63h-161.35c-6.78-12-29.94-21-94.23-28.56-54.44-6.4-126.7-9.93-203.47-9.93-76.76,0-149.03,3.53-203.47,9.93-64.29,7.57-87.45,16.57-94.23,28.56H80.96v-28.63H0v-189.16c40.85-7.75,71.08-43.23,71.08-86.26,0-43.03-30.24-78.5-71.08-86.26V28.63H80.96V0H247.42c9.71,8.22,32.94,16.22,91.94,22.97,54.1,6.2,125.35,9.61,200.64,9.61,75.29,0,146.55-3.41,200.64-9.61C799.65,16.22,822.88,8.22,832.59,0h166.47V28.63h80.95V216.87Z" fill="#fcfcfc"/></g></g></g></svg>