<?xml version="1.0" encoding="UTF-8"?><svg xmlns="http://www.w3.org/2000/svg" width="1080" height="1080" viewBox="0 0 1080 1080"><g id="a"/><g id="b"><g id="c"><path id="d" d="M802.9,156.59h0c27.63,51.01,69.5,92.88,120.51,120.51h0c208.79,113.09,208.79,412.72,0,525.8h0c-51.01,27.63-92.88,69.5-120.51,120.51h0c-113.09,208.79-412.72,208.79-525.8,0h0c-27.63-51.01-69.5-92.88-120.51-120.51h0c-208.79-113.09-208.79-412.72,0-525.8h0c51.01-27.63,92.88-69.5,120.51-120.51h0c113.09-208.79,412.72-208.79,525.8,0Z" fill="#fcfcfc"/></g></g></svg>