<?xml version="1.0" encoding="UTF-8"?><svg xmlns="http://www.w3.org/2000/svg" width="1080" height="600.34" viewBox="0 0 1080 600.34"><g id="a"/><g id="b"><g id="c"><path id="d" d="M120.28,18.27h-22.55c-11.07,0-20.04,8.97-20.04,20.04V175.16C28.38,211.64,0,254.42,0,300.17c0,45.75,28.38,88.53,77.68,125.01v136.85c0,11.07,8.97,20.04,20.04,20.04h22.55v18.27H959.72v-18.27h22.55c11.07,0,20.05-8.97,20.05-20.04v-136.85c49.3-36.48,77.68-79.26,77.68-125.01,0-45.76-28.39-88.54-77.68-125.01V38.31c0-11.07-8.98-20.04-20.05-20.04h-22.55V0H120.28V18.27Z" fill="#fcfcfc"/></g></g></svg>