<?xml version="1.0" encoding="UTF-8"?><svg xmlns="http://www.w3.org/2000/svg" width="1080" height="525.15" viewBox="0 0 1080 525.15"><g id="a"/><g id="b"><g id="c"><path id="d" d="M.55,261.38s46.66-22.1,39.69-77.42C33.09,127.24-13.29,108.34,3.73,56.96,23.57-2.93,110.88-5.31,146.6,64.9c0,0-.79-85.29,117.47-60.32,97.2,20.52,203.63,86.59,273.48,2.02l3.77-5.19c69.85,84.56,177.42,23.7,274.62,3.17,118.26-24.97,117.47,60.32,117.47,60.32,35.72-70.21,123.03-67.83,142.87-7.94,17.02,51.37-29.37,70.27-36.51,126.99-6.97,55.32,39.69,77.42,39.69,77.42h0s-46.66,24.49-39.69,79.81c7.14,56.72,53.53,75.62,36.51,126.99-19.84,59.89-107.15,62.28-142.87-7.94,0,0,.79,85.29-117.47,60.32-97.2-20.52-204.78-81.39-274.62,3.17l-3.77-5.19c-69.85-84.57-176.27-18.5-273.48,2.02-118.26,24.96-117.47-60.32-117.47-60.32-35.72,70.21-123.03,67.82-142.87,7.94-17.02-51.38,29.37-70.28,36.51-126.99C47.21,285.87,.55,261.38,.55,261.38H.55Z" fill="#fcfcfc"/></g></g></svg>