<?xml version="1.0" encoding="UTF-8"?><svg xmlns="http://www.w3.org/2000/svg" width="814.17" height="1080" viewBox="0 0 814.17 1080"><g id="a"/><g id="b"><g id="c"><g id="d"><polygon points="689.24 540 814.17 540 436.06 0 311.13 0 689.24 540" fill="#fcfcfc"/><polygon points="436.06 1080 311.13 1080 689.24 540 814.17 540 436.06 1080" fill="#fcfcfc"/><polygon points="533.68 540 658.61 540 280.5 0 155.56 0 533.68 540" fill="#fcfcfc"/><polygon points="280.5 1080 155.56 1080 533.68 540 658.61 540 280.5 1080" fill="#fcfcfc"/><polygon points="378.11 540 503.05 540 124.93 0 0 0 378.11 540" fill="#fcfcfc"/><polygon points="124.93 1080 0 1080 378.11 540 503.05 540 124.93 1080" fill="#fcfcfc"/></g></g></g></svg>