<svg xmlns="http://www.w3.org/2000/svg" width="1080" height="681.88" viewBox="0 0 1080 681.88"><g id="Layer_2" data-name="Layer 2"><g id="mask01_464554244"><path id="mask01_464554244-2" data-name="mask01_464554244" d="M19.31,123.52C31.36,112,50.58,109.76,76.89,109.09c15.65-.4,32.43-3.69,48.32-4.8q55.47-3.95,111-8.16c74.07-5.68,148.11-11.85,222.06-19C606.07,62.93,753.63,44.91,900,19.6q35.09-6,70.07-12.7c20.46-3.87,62.43-16,77.62,5.63,23.09,32.92,15.46,78.24,16.58,115.94q2.1,71.64,4.22,143.31,3.3,111.83,6.59,223.64c1.59,53.78,20,127.39-26.74,168.13-39,34-90.33,11.92-135,3.13-134.66-26.51-267-63.24-399.64-98.2C356.6,527.07,200.75,491,39.2,472.07c-9.75-1.14-20.13-2.54-27.59-8.92-7.07-6-10.25-15.69-10.49-25q-2.22-90.39-.06-180.81,1.08-45.24,3.34-90.43C5.46,145.44,10.44,132,19.31,123.52Z" fill="#fcfcfc"/></g></g></svg>