<svg xmlns="http://www.w3.org/2000/svg" width="1080" height="594.22" viewBox="0 0 1080 594.22"><g id="Layer_2" data-name="Layer 2"><g id="mask01_000000"><polygon id="mask01_000000-2" data-name="mask01_000000" points="302.92 28.8 356.22 16.67 480.76 165.69 464.55 2.44 522.22 0 557.32 162.45 633.56 4.92 689.96 12.41 632.18 172.39 793.42 36.01 843.02 52.69 698.01 194.53 928.47 92.65 966.42 116.9 748.39 226.72 1025.5 169.3 1048.08 198.74 778.36 265.8 1075 258.47 1080 290.22 785 307.94 1072.13 351.42 1059.07 382.37 767.65 349.03 1017.17 439.05 987.32 466.17 728.03 385.03 915.51 512.79 871.79 533.42 670 412.42 777.08 565.41 723.78 577.54 599.24 428.53 615.45 591.77 557.78 594.22 522.68 431.77 446.44 589.29 390.04 581.8 447.82 421.83 286.58 558.21 236.98 541.52 381.99 399.68 151.53 501.57 113.58 477.32 331.61 367.49 54.5 424.91 31.92 395.47 301.64 328.42 5 335.75 0 304 295 286.27 7.87 242.8 20.93 211.85 312.35 245.19 62.83 155.17 92.68 128.05 351.97 209.19 164.49 81.43 208.21 60.79 410 181.8 302.92 28.8" fill="#fcfcfc"/></g></g></svg>