<svg xmlns="http://www.w3.org/2000/svg" width="1080" height="587.62" viewBox="0 0 1080 587.62"><g id="Layer_2" data-name="Layer 2"><g id="mask04_464554244"><path id="mask04_464554244-2" data-name="mask04_464554244" d="M34.77,584.88c-8.08,1.31-18.73,6-26.05-1.12-.09-.1-.18-.17-.26-.27-4.64-4.71-7.33-12.39-8-20-2.07-22.91,4.05-47.69,6-70.31C11.4,433,18.83,372,17.7,311c-.91-48.64-5.68-97.13-8.45-145.68-2-34.58-13.29-81.08,11-104.55C34.1,47.45,52,44.38,69.12,41.71c54.62-8.53,109.2-17.64,164-25.08C301,7.41,369.18,1.19,437.66.15c40.79-.61,81.66.61,122.49,4,57.4,4.78,114.12,16,171.32,24.18,50.21,7.17,99.61,23.35,149.16,37.1,33.65,9.35,67.46,17.63,100.83,29,28.94,9.89,66.34,19,86.76,52.43,18.3,29.92,11.58,72.63,4.46,105.22-16.72,76.7-26.81,154.27-36,233.44-4.43,38.23,3.26,109.25-37.33,98.9-97.39-24.8-193.28-52.72-292.1-55.76-74.89-2.29-149.63,1.53-224.26,5.79-71.61,4.09-143,11-214.34,19.13-44.91,5.08-89.78,10.43-134.59,16.48q-33.18,4.47-66.29,9.52C56.75,581.33,45.77,583.11,34.77,584.88Z" fill="#fcfcfc"/></g></g></svg>