<svg xmlns="http://www.w3.org/2000/svg" width="1068.01" height="746.3" viewBox="0 0 1068.01 746.3"><g id="Layer_2" data-name="Layer 2"><g id="mask04_000000"><path id="mask04_000000-2" data-name="mask04_000000" d="M1066.33,356.11h0a87.64,87.64,0,0,0,0,34.08h0a87.5,87.5,0,0,1-11.7,63.54L1052,458a87.48,87.48,0,0,0-11.7,29.46l-1.09,5.47a87.47,87.47,0,0,1-29.12,49.59l-13.61,11.59A87.24,87.24,0,0,0,979,574.22L969.74,589A87.48,87.48,0,0,1,934,621.12l-28.59,14a87.74,87.74,0,0,0-18.29,12l-22.93,19.52a87.45,87.45,0,0,1-35.8,18.32L787.33,695a86.46,86.46,0,0,0-17.51,6.35l-36.28,17.72a87.61,87.61,0,0,1-34.27,8.79l-47.85,2.26a87.1,87.1,0,0,0-16.77,2.44l-45.47,11.19a87.63,87.63,0,0,1-33.37,1.64l-47.9-6.89a87.82,87.82,0,0,0-16.6-.8L442.59,740a87.53,87.53,0,0,1-33.68-5l-41.54-14.9a87.47,87.47,0,0,0-17.08-4.25L305,709.33a87.57,87.57,0,0,1-35-13.13L240,676.84A87.34,87.34,0,0,0,222,668L186.6,655.25a87.41,87.41,0,0,1-36.19-24.61l-15.8-18a87.46,87.46,0,0,0-18.23-15.73L95.31,583.3a87.51,87.51,0,0,1-33.6-40.65l-4.17-10.31a87.8,87.8,0,0,0-15.37-24.92L35,499.25A87.55,87.55,0,0,1,13.22,441.5v-1.61a87.54,87.54,0,0,0-6.39-32.83L6.39,406a87.53,87.53,0,0,1,0-65.66l.44-1.08a87.54,87.54,0,0,0,6.39-32.83V304.8A87.55,87.55,0,0,1,35,247.05l7.19-8.17A87.8,87.8,0,0,0,57.54,214l4.17-10.31A87.51,87.51,0,0,1,95.31,163l21.07-13.62a87.75,87.75,0,0,0,18.23-15.73l15.8-18A87.41,87.41,0,0,1,186.6,91.05L222,78.34a88.36,88.36,0,0,0,18-8.88L270,50.1A87.57,87.57,0,0,1,305,37l45.3-6.51a87.47,87.47,0,0,0,17.08-4.25l41.54-14.9a87.53,87.53,0,0,1,33.68-5l48.72,2.31a87.82,87.82,0,0,0,16.6-.8L555.81.89a87.57,87.57,0,0,1,33.36,1.64l45.48,11.19a87.89,87.89,0,0,0,16.77,2.44l47.85,2.26a87.61,87.61,0,0,1,34.27,8.79l36.28,17.72a86.46,86.46,0,0,0,17.51,6.35l41.1,10.12a87.45,87.45,0,0,1,35.8,18.32l22.93,19.51a87.78,87.78,0,0,0,18.29,12l28.59,14a87.41,87.41,0,0,1,35.7,32.11L979,172.08a87.24,87.24,0,0,0,17.41,20.13l13.61,11.59a87.44,87.44,0,0,1,29.12,49.59l1.09,5.47a87.48,87.48,0,0,0,11.7,29.46l2.67,4.24A87.54,87.54,0,0,1,1066.33,356.11Z" fill="#fcfcfc"/></g></g></svg>