<svg xmlns="http://www.w3.org/2000/svg" width="1080" height="706.94" viewBox="0 0 1080 706.94"><g id="Layer_2" data-name="Layer 2"><g id="mask06_000000"><path id="mask06_000000-2" data-name="mask06_000000" d="M853.27,367.15,1080,349.3,852.68,334.91l219.67-40.85-228,9.06,207.21-62.85-223,32.3,189.64-83.29L805.72,244l167.4-101.68L776.29,218.15l141-117.57L741,195.62,852.25,65.05,700.84,177,779.47,36.63,656.68,162.68,700.8,16,609.65,153.08,618.18,3.7,560.9,148.41,533.62,0l-22,148.8L449.23,5l13.84,149.21-96-135.63,49.33,146L289.16,40.42l83.61,139.11L217.44,70,333.26,198.8,153.65,106.48,298.84,221.87,99.38,149.08l171,99.11L56,196.72l192.56,80.37L24.46,248.21l209.4,59.67L5.65,302.3l221.08,37.49L0,357.65,227.32,372,7.64,412.89l228-9.06L28.4,466.67l223-32.29L61.75,517.66l212.52-54.73L106.88,564.61,303.7,488.8l-141,117.57,176.28-95L227.75,641.89,379.15,530,300.52,670.31l122.79-126L379.19,690.93l91.16-137.06-8.53,149.38L519.1,558.53l27.28,148.41,22-148.79,62.41,143.79L616.93,552.72l96,135.64-49.33-146L790.83,666.52,707.22,527.41,862.56,637,746.73,508.15l179.61,92.31L781.15,485.07l199.47,72.79-171-99.1L1024,510.23,831.48,429.85l224.06,28.88-209.4-59.67,228.21,5.59ZM540.08,353.5h0v0h0Z" fill="#fcfcfc"/></g></g></svg>