<svg xmlns="http://www.w3.org/2000/svg" width="1080" height="647.86" viewBox="0 0 1080 647.86"><g id="Layer_2" data-name="Layer 2"><g id="mask02_000000"><polygon id="mask02_000000-2" data-name="mask02_000000" points="613.7 647.86 540 482.42 466.3 647.86 469.57 476.59 324.36 623.95 404.36 459.56 198.42 577.9 349.21 432.59 97.81 513.13 308.21 397.66 29.99 434.43 284.4 357.38 0 347.65 279.55 314.73 10.06 259.23 294.01 272.88 59.42 175.72 326.72 234.93 144.43 103.31 375.25 203.68 258.77 47.38 435.99 181.47 393.97 12.07 504.45 169.94 540 0 575.55 169.94 686.03 12.07 644.01 181.47 821.23 47.38 704.75 203.68 935.57 103.31 753.28 234.93 1020.58 175.72 785.99 272.88 1069.94 259.23 800.45 314.73 1080 347.65 795.6 357.38 1050.01 434.43 771.79 397.66 982.2 513.12 730.79 432.59 881.58 577.9 675.64 459.56 755.64 623.95 610.43 476.59 613.7 647.86" fill="#fcfcfc"/></g></g></svg>